G04 start of page 10 for group -4079 idx -4079 *
G04 Title: PD-ac, topsilk *
G04 Creator: pcb 1.99x *
G04 CreationDate: Fri 09 Jan 2009 03:59:07 PM GMT UTC *
G04 For: kmk *
G04 Format: Gerber/RS-274X *
G04 PCB-Dimensions: 275591 314961 *
G04 PCB-Coordinate-Origin: lower left *
%MOIN*%
%FSLAX24Y24*%
%LNFRONTSILK*%
%ADD14C,0.0150*%
%ADD23C,0.0098*%
%ADD32C,0.0088*%
%ADD33C,0.0060*%
%ADD38C,0.0100*%
%ADD55C,0.0110*%
%ADD56C,0.0080*%
%ADD57C,0.0079*%
G54D55*X7677Y4133D02*X20079D01*
X22638Y6101D02*Y18503D01*
X20079Y4133D02*Y6101D01*
X22638D01*
X5117Y18502D02*Y6593D01*
X7677D02*Y4133D01*
X5117Y6593D02*X7677D01*
X20075Y18508D02*Y21262D01*
X7677Y21259D02*Y18503D01*
X20079Y21259D02*X7677D01*
Y18503D02*X5118D01*
X22637Y18503D02*X20077D01*
G54D38*X6299Y18503D02*G75*G03X5118Y17322I0J-1181D01*G01*
G75*G03X6299Y16141I1181J0D01*G01*
X7480Y17322D02*G75*G03X6299Y18503I-1181J0D01*G01*
Y16141D02*G75*G03X7480Y17322I0J1181D01*G01*
X21455Y16141D02*G75*G03X22636Y17322I0J1181D01*G01*
G75*G03X21455Y18503I-1181J0D01*G01*
G75*G03X20274Y17322I0J-1181D01*G01*
G75*G03X21455Y16141I1181J0D01*G01*
G54D32*X8476Y18873D02*Y17989D01*
X8808Y18873D02*X8918Y18763D01*
Y18100D01*
X8808Y17989D02*X8918Y18100D01*
X8366Y17989D02*X8808D01*
X8366Y18873D02*X8808D01*
X9294Y17989D02*X9626D01*
X9184Y18100D02*X9294Y17989D01*
X9184Y18763D02*Y18100D01*
Y18763D02*X9294Y18873D01*
X9626D01*
X14763Y18763D02*Y17989D01*
Y18763D02*X14874Y18873D01*
X15205D01*
X15316Y18763D01*
Y17989D01*
X14763Y18431D02*X15316D01*
X15692Y17989D02*X16023D01*
X15581Y18100D02*X15692Y17989D01*
X15581Y18763D02*Y18100D01*
Y18763D02*X15692Y18873D01*
X16023D01*
G54D33*X9698Y21042D02*Y20554D01*
X9637Y21042D02*X9881D01*
X9942Y20981D01*
Y20859D01*
X9881Y20798D02*X9942Y20859D01*
X9698Y20798D02*X9881D01*
X10149Y21042D02*Y20554D01*
X10332Y21042D02*X10393Y20981D01*
Y20615D01*
X10332Y20554D02*X10393Y20615D01*
X10088Y20554D02*X10332D01*
X10088Y21042D02*X10332D01*
X10540Y20798D02*X10784D01*
X10930Y20981D02*Y20554D01*
Y20981D02*X10991Y21042D01*
X11174D01*
X11235Y20981D01*
Y20554D01*
X10930Y20798D02*X11235D01*
X11443Y20554D02*X11626D01*
X11382Y20615D02*X11443Y20554D01*
X11382Y20981D02*Y20615D01*
Y20981D02*X11443Y21042D01*
X11626D01*
X11992Y20798D02*Y20676D01*
X12114Y20554D01*
X12236Y20676D01*
Y20798D02*Y20676D01*
X12382Y20554D02*X12443D01*
X12590Y20981D02*X12651Y21042D01*
X12834D01*
X12895Y20981D01*
Y20859D01*
X12590Y20554D02*X12895Y20859D01*
X12590Y20554D02*X12895D01*
X9637Y20077D02*X9787D01*
X9637Y19877D02*X9837D01*
X9637Y20277D02*Y19877D01*
Y20277D02*X9837D01*
X9957D02*Y19927D01*
X10007Y19877D01*
X10157D02*X10307D01*
X10107Y19927D02*X10157Y19877D01*
X10107Y20027D02*Y19927D01*
Y20027D02*X10157Y20077D01*
X10257D01*
X10307Y20027D01*
X10107Y19977D02*X10307D01*
Y20027D02*Y19977D01*
X10427Y20277D02*Y19877D01*
Y20027D02*X10577Y19877D01*
X10427Y20027D02*X10527Y20127D01*
X10747Y20277D02*Y19927D01*
X10797Y19877D01*
X10697Y20127D02*X10797D01*
X10947Y20027D02*Y19877D01*
Y20027D02*X10997Y20077D01*
X11097D01*
X10897D02*X10947Y20027D01*
X11217D02*Y19927D01*
Y20027D02*X11267Y20077D01*
X11367D01*
X11417Y20027D01*
Y19927D01*
X11367Y19877D02*X11417Y19927D01*
X11267Y19877D02*X11367D01*
X11217Y19927D02*X11267Y19877D01*
X11587Y20027D02*Y19877D01*
Y20027D02*X11637Y20077D01*
X11687D01*
X11737Y20027D01*
Y19877D01*
X11537Y20077D02*X11587Y20027D01*
X11858Y20277D02*X11958D01*
X11908D02*Y19877D01*
X11858D02*X11958D01*
X12078Y20227D02*Y19927D01*
Y20227D02*X12128Y20277D01*
X12228D01*
X12278Y20227D01*
Y19927D01*
X12228Y19877D02*X12278Y19927D01*
X12128Y19877D02*X12228D01*
X12078Y19927D02*X12128Y19877D01*
X12178Y19977D02*X12278Y19877D01*
X12578Y20227D02*X12628Y20277D01*
X12778D01*
X12828Y20227D01*
Y20127D01*
X12578Y19877D02*X12828Y20127D01*
X12578Y19877D02*X12828D01*
X12948Y19927D02*X12998Y19877D01*
X12948Y20227D02*Y19927D01*
Y20227D02*X12998Y20277D01*
X13098D01*
X13148Y20227D01*
Y19927D01*
X13098Y19877D02*X13148Y19927D01*
X12998Y19877D02*X13098D01*
X12948Y19977D02*X13148Y20177D01*
X13268Y19927D02*X13318Y19877D01*
X13268Y20227D02*Y19927D01*
Y20227D02*X13318Y20277D01*
X13418D01*
X13468Y20227D01*
Y19927D01*
X13418Y19877D02*X13468Y19927D01*
X13318Y19877D02*X13418D01*
X13268Y19977D02*X13468Y20177D01*
X13588Y19877D02*X13788Y20077D01*
Y20227D02*Y20077D01*
X13738Y20277D02*X13788Y20227D01*
X13638Y20277D02*X13738D01*
X13588Y20227D02*X13638Y20277D01*
X13588Y20227D02*Y20127D01*
X13638Y20077D01*
X13788D01*
X10129Y19388D02*X10329D01*
X10449D02*X10549Y19488D01*
X10449Y19388D02*X10549Y19288D01*
X10669Y19238D02*X10719Y19188D01*
X10669Y19538D02*X10719Y19588D01*
X10669Y19538D02*Y19238D01*
X10839Y19588D02*Y19188D01*
Y19338D02*X10989Y19188D01*
X10839Y19338D02*X10939Y19438D01*
X11159Y19338D02*Y19188D01*
Y19338D02*X11209Y19388D01*
X11259D01*
X11309Y19338D01*
Y19188D01*
Y19338D02*X11359Y19388D01*
X11409D01*
X11459Y19338D01*
Y19188D01*
X11109Y19388D02*X11159Y19338D01*
X11579Y19588D02*Y19188D01*
Y19338D02*X11729Y19188D01*
X11579Y19338D02*X11679Y19438D01*
X11899Y19338D02*Y19188D01*
Y19338D02*X11949Y19388D01*
X11999D01*
X12049Y19338D01*
Y19188D01*
X11849Y19388D02*X11899Y19338D01*
X12319Y19388D02*X12369Y19338D01*
X12219Y19388D02*X12319D01*
X12169Y19338D02*X12219Y19388D01*
X12169Y19338D02*Y19238D01*
X12219Y19188D01*
X12369Y19388D02*Y19238D01*
X12419Y19188D01*
X12219D02*X12319D01*
X12369Y19238D01*
X12689Y19388D02*X12739Y19338D01*
X12589Y19388D02*X12689D01*
X12539Y19338D02*X12589Y19388D01*
X12539Y19338D02*Y19238D01*
X12589Y19188D01*
X12739Y19388D02*Y19238D01*
X12789Y19188D01*
X12589D02*X12689D01*
X12739Y19238D01*
X12910Y19588D02*Y19188D01*
Y19338D02*X13060Y19188D01*
X12910Y19338D02*X13010Y19438D01*
X13180Y19588D02*X13230Y19538D01*
Y19238D01*
X13180Y19188D02*X13230Y19238D01*
X13350Y19488D02*X13450Y19388D01*
X13350Y19288D02*X13450Y19388D01*
X13570D02*X13770D01*
G54D56*X17415Y12395D02*X19215D01*
Y13195D01*
X17565D01*
X17415Y13045D01*
Y12395D01*
G54D38*X21553Y12909D02*Y13779D01*
X20573Y12909D02*X21553D01*
X20573Y13779D02*Y12909D01*
X21553Y14649D02*Y13779D01*
X20933Y14649D02*X21553D01*
X20573Y14289D02*X20933Y14649D01*
X20573Y13779D02*Y14289D01*
G54D56*X17415Y13379D02*X19215D01*
Y14179D01*
X17565D01*
X17415Y14029D01*
Y13379D01*
X17399Y15163D02*X19199D01*
X17399D02*Y14363D01*
X19049D01*
X19199Y14513D01*
Y15163D02*Y14513D01*
X20170Y11804D02*X21970D01*
Y12604D01*
X20320D01*
X20170Y12454D01*
Y11804D01*
X20367Y14954D02*X22167D01*
Y15754D01*
X20517D01*
X20367Y15604D01*
Y14954D01*
X8344Y11242D02*X10144D01*
X8344D02*Y10442D01*
X9994D01*
X10144Y10592D01*
Y11242D02*Y10592D01*
X5315Y10169D02*X7677D01*
Y11153D01*
X5413D01*
X5315Y11055D01*
Y10169D01*
X8344Y12211D02*X10144D01*
X8344D02*Y11411D01*
X9994D01*
X10144Y11561D01*
Y12211D02*Y11561D01*
X10509Y6518D02*X12309D01*
X10509D02*Y5718D01*
X12159D01*
X12309Y5868D01*
Y6518D02*Y5868D01*
X10509Y7486D02*X12309D01*
X10509D02*Y6686D01*
X12159D01*
X12309Y6836D01*
Y7486D02*Y6836D01*
X10509Y8470D02*X12309D01*
X10509D02*Y7670D01*
X12159D01*
X12309Y7820D01*
Y8470D02*Y7820D01*
X10525Y4718D02*X12325D01*
Y5518D01*
X10675D01*
X10525Y5368D01*
Y4718D01*
G54D38*X13880Y8006D02*X14240Y8366D01*
X13880Y6626D02*X14860D01*
Y8366D01*
X14240D02*X14860D01*
X13880Y6626D02*Y8006D01*
G54D56*X16627Y5997D02*X18427D01*
Y6797D02*Y5997D01*
X16777Y6797D02*X18427D01*
X16777D02*X16627Y6647D01*
Y5997D01*
Y7178D02*X18427D01*
Y7978D01*
X16777D01*
X16627Y7828D01*
Y7178D01*
G54D38*X20765Y6413D02*Y7283D01*
X19785Y6413D02*X20765D01*
X19785Y7283D02*Y6413D01*
X20765Y8153D02*Y7283D01*
X20145Y8153D02*X20765D01*
X19785Y7793D02*X20145Y8153D01*
X19785Y7283D02*Y7793D01*
X22244Y22430D02*X5512D01*
G54D23*X22244Y5698D02*X22638D01*
G54D38*X3937Y4123D02*Y20855D01*
G54D23*X20669Y4123D02*Y3729D01*
G54D38*X4724Y18887D02*Y6091D01*
X5512Y2548D02*X22244D01*
X7480Y3336D02*X20275D01*
G54D23*X20669Y21249D02*Y20855D01*
X7086Y21249D02*Y20855D01*
X5118Y19280D02*X5512D01*
X7086Y3729D02*Y4123D01*
X5118Y5698D02*X5512D01*
X22244Y19280D02*X22638D01*
G54D38*X23819Y20855D02*Y4123D01*
X23031Y18887D02*Y6091D01*
X7480Y21643D02*X20275D01*
G54D23*X23228Y12588D02*Y12391D01*
Y12588D02*X23425D01*
X23228Y12391D02*X23425D01*
X4527Y12588D02*X4330D01*
Y12391D01*
X4527D01*
X13976Y3139D02*Y2942D01*
X13779D02*Y3139D01*
X13976D01*
X13779Y21839D02*Y22036D01*
X13976D01*
Y21839D01*
X13779D01*
X13976Y2942D02*X13779D01*
X23425Y12588D02*Y12391D01*
X4527Y12588D02*Y12391D01*
X4724Y6091D02*G75*G03X5118Y5698I393J0D01*G01*
X7480Y21643D02*G75*G03X7086Y21249I0J-393D01*G01*
X22244Y5698D02*G75*G03X20669Y4123I0J-1574D01*G01*
Y20855D02*G75*G03X22244Y19280I1574J0D01*G01*
X22638Y5698D02*G75*G03X23031Y6091I0J393D01*G01*
X20669Y21249D02*G75*G03X20275Y21643I-393J0D01*G01*
X3937Y4123D02*G75*G03X5512Y2548I1574J0D01*G01*
Y22430D02*G75*G03X3937Y20855I0J-1574D01*G01*
X5118Y19280D02*G75*G03X4724Y18887I0J-393D01*G01*
X5512Y19280D02*G75*G03X7086Y20855I0J1574D01*G01*
Y4123D02*G75*G03X5512Y5698I-1574J0D01*G01*
X7086Y3729D02*G75*G03X7480Y3336I393J0D01*G01*
X23031Y18887D02*G75*G03X22638Y19280I-393J0D01*G01*
X20275Y3336D02*G75*G03X20669Y3729I0J393D01*G01*
X23819Y20855D02*G75*G03X22244Y22430I-1574J0D01*G01*
Y2548D02*G75*G03X23819Y4123I0J1574D01*G01*
X21949Y5009D02*G75*G03X21358Y4418I0J-590D01*G01*
X22539D02*G75*G03X21949Y5009I-590J0D01*G01*
X21948Y3828D02*G75*G03X22539Y4418I0J590D01*G01*
X21358Y4418D02*G75*G03X21948Y3828I590J0D01*G01*
X6397Y4418D02*G75*G03X5807Y5009I-590J0D01*G01*
X5807Y3828D02*G75*G03X6397Y4418I0J590D01*G01*
X5216Y4418D02*G75*G03X5807Y3828I590J0D01*G01*
X5807Y5009D02*G75*G03X5216Y4418I0J-590D01*G01*
X5807Y19969D02*G75*G03X6397Y20560I0J590D01*G01*
Y20560D02*G75*G03X5807Y21151I-590J0D01*G01*
Y21150D02*G75*G03X5216Y20560I0J-590D01*G01*
X5216D02*G75*G03X5807Y19969I590J0D01*G01*
X21949Y21151D02*G75*G03X21358Y20560I0J-590D01*G01*
X22539D02*G75*G03X21948Y21151I-590J0D01*G01*
Y19969D02*G75*G03X22539Y20560I0J590D01*G01*
X21358Y20560D02*G75*G03X21948Y19969I590J0D01*G01*
G54D56*X10526Y8671D02*X12326D01*
Y9471D01*
X10676D01*
X10526Y9321D01*
Y8671D01*
X19383Y9344D02*X21183D01*
Y10144D01*
X19533D01*
X19383Y9994D01*
Y9344D01*
Y8359D02*X21183D01*
Y9159D01*
X19533D01*
X19383Y9009D01*
Y8359D01*
X16627Y9147D02*X18427D01*
Y9947D01*
X16777D01*
X16627Y9797D01*
Y9147D01*
Y8163D02*X18427D01*
Y8963D01*
X16777D01*
X16627Y8813D01*
Y8163D01*
X17418Y11410D02*X19218D01*
Y12210D01*
X17568D01*
X17418Y12060D01*
Y11410D01*
X20155Y11620D02*X21955D01*
X20155D02*Y10820D01*
X21805D01*
X21955Y10970D01*
Y11620D02*Y10970D01*
X13186Y8687D02*X14986D01*
Y9487D01*
X13336D01*
X13186Y9337D01*
Y8687D01*
Y9672D02*X14986D01*
Y10472D02*Y9672D01*
X13336Y10472D02*X14986D01*
X13336D02*X13186Y10322D01*
Y9672D01*
X14348Y12112D02*X16148D01*
X14348D02*Y11312D01*
X15998D01*
X16148Y11462D01*
Y12112D02*Y11462D01*
X11509Y11411D02*X13309D01*
Y12211D02*Y11411D01*
X11659Y12211D02*X13309D01*
X11659D02*X11509Y12061D01*
Y11411D01*
G54D38*X6043Y11554D02*X5885Y11396D01*
Y11396D02*Y11396D01*
Y11396D02*X5570Y11711D01*
X5492Y11790D01*
X5649Y11947D01*
X6594Y11436D02*G75*G03X7657Y12499I0J1063D01*G01*
X5531Y12499D02*G75*G03X6594Y11436I1063J0D01*G01*
X6594Y13562D02*G75*G03X5531Y12499I0J-1063D01*G01*
X7657Y12499D02*G75*G03X6594Y13562I-1062J0D01*G01*
X6436Y12499D02*G75*G03X6594Y12341I157J0D01*G01*
G75*G03X6751Y12499I0J157D01*G01*
G75*G03X6594Y12656I-157J0D01*G01*
X6594D02*G75*G03X6436Y12498I0J-157D01*G01*
G54D14*X6594Y12420D02*G75*G03X6673Y12499I0J78D01*G01*
X6515Y12499D02*G75*G03X6594Y12420I78J0D01*G01*
G54D38*X6673Y12499D02*G75*G03X6594Y12577I-78J0D01*G01*
G54D14*G75*G03X6515Y12499I0J-78D01*G01*
G54D56*X5315Y6822D02*X7677D01*
Y7807D01*
X5413D01*
X5315Y7708D01*
Y6822D01*
G54D38*X7677Y9972D02*Y8003D01*
X5315Y9972D02*X7677D01*
X5315D02*Y8003D01*
X7677D01*
G54D23*X5807Y8594D02*Y8003D01*
Y9972D02*Y9381D01*
X5512Y8594D02*X5807D01*
X5512Y9381D02*Y8594D01*
Y9381D02*X5807D01*
G54D56*X7874Y4641D02*X10236D01*
Y5626D01*
X7972D01*
X7874Y5527D01*
Y4641D01*
G54D38*X5709Y12204D02*Y11712D01*
X7480D01*
Y12204D02*Y11712D01*
Y13286D02*Y12794D01*
X5709Y13286D02*X7480D01*
X5709D02*Y12794D01*
X6043Y11987D02*X7067D01*
Y13011D02*Y11987D01*
X6043Y13011D02*X7067D01*
X6043D02*Y11987D01*
X7264Y13011D02*Y11987D01*
X5847Y12499D02*X6043D01*
X7264D02*X7343D01*
G54D33*X6595Y12617D02*Y12381D01*
X6476Y12499D02*X6713D01*
G54D56*X8934Y16344D02*X10734D01*
X8934D02*Y15544D01*
X10584D01*
X10734Y15694D01*
Y16344D02*Y15694D01*
G54D38*X5618Y17322D02*G75*G03X5618Y17322I680J0D01*G01*
G54D56*X14363Y12296D02*X16163D01*
Y13096D01*
X14513D01*
X14363Y12946D01*
Y12296D01*
X11509Y13379D02*X13309D01*
Y14179D01*
X11659D01*
X11509Y14029D01*
Y13379D01*
X11493Y15163D02*X13293D01*
X11493D02*Y14363D01*
X13143D01*
X13293Y14513D01*
Y15163D02*Y14513D01*
G54D38*X10151Y13385D02*Y12515D01*
X9171D02*X10151D01*
X9171Y13385D02*Y12515D01*
X10151Y14255D02*Y13385D01*
X9531Y14255D02*X10151D01*
X9171Y13895D02*X9531Y14255D01*
X9171Y13895D02*Y13385D01*
X15663Y13303D02*Y14173D01*
X14683Y13303D02*X15663D01*
X14683Y14173D02*Y13303D01*
X15663Y15043D02*Y14173D01*
X15043Y15043D02*X15663D01*
X14683Y14683D02*X15043Y15043D01*
X14683Y14173D02*Y14683D01*
G54D56*X11493Y13195D02*X13293D01*
X11493D02*Y12395D01*
X13143D01*
X13293Y12545D01*
Y13195D02*Y12545D01*
X8950Y14560D02*X10750D01*
Y15360D01*
X9100D01*
X8950Y15210D01*
Y14560D01*
X14249Y17132D02*X16049D01*
X14249D02*Y16332D01*
X15899D01*
X16049Y16482D01*
Y17132D02*Y16482D01*
X14265Y15348D02*X16065D01*
Y16148D01*
X14415D01*
X14265Y15998D01*
Y15348D01*
G54D38*X20775Y17322D02*G75*G03X20775Y17322I680J0D01*G01*
G54D56*X16025Y19887D02*X17825D01*
X16025D02*Y19087D01*
X17675D01*
X17825Y19237D01*
Y19887D02*Y19237D01*
X18005Y19088D02*X19805D01*
Y19888D01*
X18155D01*
X18005Y19738D01*
Y19088D01*
G54D57*X18228Y20078D02*X19173D01*
X18228D02*X18070Y20236D01*
Y20708D02*Y20236D01*
Y20708D02*X18228Y20866D01*
X19173D01*
X19330Y20708D01*
Y20236D01*
X19173Y20078D01*
X16850Y20866D02*X17795D01*
X17952Y20708D01*
Y20236D01*
X17795Y20078D01*
X16850D01*
X16692Y20236D01*
Y20708D01*
X16850Y20866D01*
G54D33*X5857Y7510D02*Y7110D01*
X6007Y7510D02*X6057Y7460D01*
Y7160D01*
X6007Y7110D02*X6057Y7160D01*
X5807Y7110D02*X6007D01*
X5807Y7510D02*X6007D01*
X6177D02*X6377D01*
X6177D02*Y7310D01*
X6227Y7360D01*
X6327D01*
X6377Y7310D01*
Y7160D01*
X6327Y7110D02*X6377Y7160D01*
X6227Y7110D02*X6327D01*
X6177Y7160D02*X6227Y7110D01*
X8613Y10606D02*X8763D01*
X8563Y10656D02*X8613Y10606D01*
X8563Y10956D02*Y10656D01*
Y10956D02*X8613Y11006D01*
X8763D01*
X8883Y10806D02*X9083Y11006D01*
X8883Y10806D02*X9133D01*
X9083Y11006D02*Y10606D01*
X5857Y10856D02*Y10456D01*
X6007Y10856D02*X6057Y10806D01*
Y10506D01*
X6007Y10456D02*X6057Y10506D01*
X5807Y10456D02*X6007D01*
X5807Y10856D02*X6007D01*
X6177Y10806D02*X6227Y10856D01*
X6327D01*
X6377Y10806D01*
Y10506D01*
X6327Y10456D02*X6377Y10506D01*
X6227Y10456D02*X6327D01*
X6177Y10506D02*X6227Y10456D01*
Y10656D02*X6377D01*
X7389Y8400D02*Y8250D01*
X7339Y8200D02*X7389Y8250D01*
X7039Y8200D02*X7339D01*
X7039D02*X6989Y8250D01*
Y8400D02*Y8250D01*
X7039Y8520D02*X7339D01*
X7039D02*X6989Y8570D01*
Y8670D02*Y8570D01*
Y8670D02*X7039Y8720D01*
X7339D01*
X7389Y8670D02*X7339Y8720D01*
X7389Y8670D02*Y8570D01*
X7339Y8520D02*X7389Y8570D01*
X6989Y8841D02*X7389D01*
X6989D02*X7039D01*
X7289Y9091D01*
X6989D02*X7389D01*
X6989Y9211D02*X7389D01*
X6989D02*X7039D01*
X7289Y9461D01*
X6989D02*X7389D01*
Y9731D02*Y9631D01*
X6989Y9681D02*X7389D01*
X7089Y9581D02*X6989Y9681D01*
X8707Y11612D02*X8857D01*
X8657Y11662D02*X8707Y11612D01*
X8657Y11962D02*Y11662D01*
Y11962D02*X8707Y12012D01*
X8857D01*
X9027Y11612D02*X9127D01*
X9077Y12012D02*Y11612D01*
X8977Y11912D02*X9077Y12012D01*
X9247Y11962D02*X9297Y12012D01*
X9397D01*
X9447Y11962D01*
Y11662D01*
X9397Y11612D02*X9447Y11662D01*
X9297Y11612D02*X9397D01*
X9247Y11662D02*X9297Y11612D01*
Y11812D02*X9447D01*
X17644Y13979D02*X17844D01*
X17894Y13929D01*
Y13829D01*
X17844Y13779D02*X17894Y13829D01*
X17694Y13779D02*X17844D01*
X17694Y13979D02*Y13579D01*
Y13779D02*X17894Y13579D01*
X18014D02*X18264Y13829D01*
Y13979D02*Y13829D01*
X18014Y13979D02*X18264D01*
X17676Y14554D02*X17826D01*
X17626Y14604D02*X17676Y14554D01*
X17626Y14904D02*Y14604D01*
Y14904D02*X17676Y14954D01*
X17826D01*
X17996Y14554D02*X18096D01*
X18046Y14954D02*Y14554D01*
X17946Y14854D02*X18046Y14954D01*
X18266Y14554D02*X18366D01*
X18316Y14954D02*Y14554D01*
X18216Y14854D02*X18316Y14954D01*
X15222Y14873D02*X15495D01*
X15222D02*X15183Y14834D01*
Y14756D01*
X15222Y14717D01*
X15495D01*
X15456Y14623D02*X15495Y14584D01*
Y14467D01*
X15456Y14428D01*
X15378D02*X15456D01*
X15183Y14623D02*X15378Y14428D01*
X15183Y14623D02*Y14428D01*
X16035Y20683D02*X16185D01*
Y20333D01*
X16135Y20283D02*X16185Y20333D01*
X16085Y20283D02*X16135D01*
X16035Y20333D02*X16085Y20283D01*
X16305Y20633D02*X16355Y20683D01*
X16505D01*
X16555Y20633D01*
Y20533D01*
X16305Y20283D02*X16555Y20533D01*
X16305Y20283D02*X16555D01*
X14465Y15948D02*X14665D01*
X14715Y15898D01*
Y15798D01*
X14665Y15748D02*X14715Y15798D01*
X14515Y15748D02*X14665D01*
X14515Y15948D02*Y15548D01*
Y15748D02*X14715Y15548D01*
X14835Y15748D02*X15035Y15948D01*
X14835Y15748D02*X15085D01*
X15035Y15948D02*Y15548D01*
X6002Y17518D02*Y17118D01*
X6252Y17518D02*Y17118D01*
X6002Y17318D02*X6252D01*
X6422Y17118D02*X6522D01*
X6472Y17518D02*Y17118D01*
X6372Y17418D02*X6472Y17518D01*
X7480Y18787D02*Y18387D01*
Y18787D02*X7630Y18637D01*
X7780Y18787D01*
Y18387D01*
X7950D02*X8050D01*
X8000Y18787D02*Y18387D01*
X7900Y18687D02*X8000Y18787D01*
X11920Y12012D02*X12120D01*
X12170Y11962D01*
Y11862D01*
X12120Y11812D02*X12170Y11862D01*
X11970Y11812D02*X12120D01*
X11970Y12012D02*Y11612D01*
Y11812D02*X12170Y11612D01*
X12441Y12012D02*X12491Y11962D01*
X12341Y12012D02*X12441D01*
X12291Y11962D02*X12341Y12012D01*
X12291Y11962D02*Y11662D01*
X12341Y11612D01*
X12441Y11812D02*X12491Y11762D01*
X12291Y11812D02*X12441D01*
X12341Y11612D02*X12441D01*
X12491Y11662D01*
Y11762D02*Y11662D01*
X16893Y9748D02*X17093D01*
X17143Y9698D01*
Y9598D01*
X17093Y9548D02*X17143Y9598D01*
X16943Y9548D02*X17093D01*
X16943Y9748D02*Y9348D01*
Y9548D02*X17143Y9348D01*
X17313D02*X17413D01*
X17363Y9748D02*Y9348D01*
X17263Y9648D02*X17363Y9748D01*
X17533Y9698D02*X17583Y9748D01*
X17733D01*
X17783Y9698D01*
Y9598D01*
X17533Y9348D02*X17783Y9598D01*
X17533Y9348D02*X17783D01*
X11872Y12596D02*X12022D01*
X11822Y12646D02*X11872Y12596D01*
X11822Y12946D02*Y12646D01*
Y12946D02*X11872Y12996D01*
X12022D01*
X12142Y12946D02*X12192Y12996D01*
X12342D01*
X12392Y12946D01*
Y12846D01*
X12142Y12596D02*X12392Y12846D01*
X12142Y12596D02*X12392D01*
X16924Y8763D02*X17124D01*
X17174Y8713D01*
Y8613D01*
X17124Y8563D02*X17174Y8613D01*
X16974Y8563D02*X17124D01*
X16974Y8763D02*Y8363D01*
Y8563D02*X17174Y8363D01*
X17294Y8413D02*X17344Y8363D01*
X17294Y8513D02*Y8413D01*
Y8513D02*X17344Y8563D01*
X17444D01*
X17494Y8513D01*
Y8413D01*
X17444Y8363D02*X17494Y8413D01*
X17344Y8363D02*X17444D01*
X17294Y8613D02*X17344Y8563D01*
X17294Y8713D02*Y8613D01*
Y8713D02*X17344Y8763D01*
X17444D01*
X17494Y8713D01*
Y8613D01*
X17444Y8563D02*X17494Y8613D01*
X9297Y15745D02*X9447D01*
X9247Y15795D02*X9297Y15745D01*
X9247Y16095D02*Y15795D01*
Y16095D02*X9297Y16145D01*
X9447D01*
X9617Y15745D02*X9717D01*
X9667Y16145D02*Y15745D01*
X9567Y16045D02*X9667Y16145D01*
X9837Y15945D02*X10037Y16145D01*
X9837Y15945D02*X10087D01*
X10037Y16145D02*Y15745D01*
X9150Y15160D02*X9350D01*
X9400Y15110D01*
Y15010D01*
X9350Y14960D02*X9400Y15010D01*
X9200Y14960D02*X9350D01*
X9200Y15160D02*Y14760D01*
Y14960D02*X9400Y14760D01*
X9520Y15110D02*X9570Y15160D01*
X9720D01*
X9770Y15110D01*
Y15010D01*
X9520Y14760D02*X9770Y15010D01*
X9520Y14760D02*X9770D01*
X11626Y13979D02*X11826D01*
X11876Y13929D01*
Y13829D01*
X11826Y13779D02*X11876Y13829D01*
X11676Y13779D02*X11826D01*
X11676Y13979D02*Y13579D01*
Y13779D02*X11876Y13579D01*
X11996Y13929D02*X12046Y13979D01*
X12146D01*
X12196Y13929D01*
Y13629D01*
X12146Y13579D02*X12196Y13629D01*
X12046Y13579D02*X12146D01*
X11996Y13629D02*X12046Y13579D01*
Y13779D02*X12196D01*
X11759Y14528D02*X11909D01*
X11709Y14578D02*X11759Y14528D01*
X11709Y14878D02*Y14578D01*
Y14878D02*X11759Y14928D01*
X11909D01*
X12079Y14528D02*X12179D01*
X12129Y14928D02*Y14528D01*
X12029Y14828D02*X12129Y14928D01*
X9710Y14085D02*X9983D01*
X9710D02*X9671Y14046D01*
Y13968D01*
X9710Y13929D01*
X9983D01*
X9671Y13797D02*Y13719D01*
Y13758D02*X9983D01*
X9905Y13836D02*X9983Y13758D01*
X5564Y14655D02*Y14255D01*
X5714Y14655D02*X5764Y14605D01*
Y14305D01*
X5714Y14255D02*X5764Y14305D01*
X5514Y14255D02*X5714D01*
X5514Y14655D02*X5714D01*
X5934Y14255D02*X6034D01*
X5984Y14655D02*Y14255D01*
X5884Y14555D02*X5984Y14655D01*
X5553Y14075D02*Y13675D01*
X5703Y14075D02*X5753Y14025D01*
Y13725D01*
X5703Y13675D02*X5753Y13725D01*
X5503Y13675D02*X5703D01*
X5503Y14075D02*X5703D01*
X5873Y14025D02*X5923Y14075D01*
X6073D01*
X6123Y14025D01*
Y13925D01*
X5873Y13675D02*X6123Y13925D01*
X5873Y13675D02*X6123D01*
X10626Y6286D02*X10826D01*
X10876Y6236D01*
Y6136D01*
X10826Y6086D02*X10876Y6136D01*
X10676Y6086D02*X10826D01*
X10676Y6286D02*Y5886D01*
Y6086D02*X10876Y5886D01*
X10996Y6286D02*X11196D01*
X10996D02*Y6086D01*
X11046Y6136D01*
X11146D01*
X11196Y6086D01*
Y5936D01*
X11146Y5886D02*X11196Y5936D01*
X11046Y5886D02*X11146D01*
X10996Y5936D02*X11046Y5886D01*
X13389Y9283D02*X13589D01*
X13639Y9233D01*
Y9133D01*
X13589Y9083D02*X13639Y9133D01*
X13439Y9083D02*X13589D01*
X13439Y9283D02*Y8883D01*
Y9083D02*X13639Y8883D01*
X13809D02*X13909D01*
X13859Y9283D02*Y8883D01*
X13759Y9183D02*X13859Y9283D01*
X14029Y9083D02*X14229Y9283D01*
X14029Y9083D02*X14279D01*
X14229Y9283D02*Y8883D01*
X10779Y8866D02*X10929D01*
X10729Y8916D02*X10779Y8866D01*
X10729Y9216D02*Y8916D01*
Y9216D02*X10779Y9266D01*
X10929D01*
X11099Y8866D02*X11199D01*
X11149Y9266D02*Y8866D01*
X11049Y9166D02*X11149Y9266D01*
X11319Y9216D02*X11369Y9266D01*
X11519D01*
X11569Y9216D01*
Y9116D01*
X11319Y8866D02*X11569Y9116D01*
X11319Y8866D02*X11569D01*
X10778Y6850D02*X10928D01*
X10728Y6900D02*X10778Y6850D01*
X10728Y7200D02*Y6900D01*
Y7200D02*X10778Y7250D01*
X10928D01*
X11048Y6850D02*X11298Y7100D01*
Y7250D02*Y7100D01*
X11048Y7250D02*X11298D01*
X16880Y6192D02*X17030D01*
X16830Y6242D02*X16880Y6192D01*
X16830Y6542D02*Y6242D01*
Y6542D02*X16880Y6592D01*
X17030D01*
X17200Y6192D02*X17300D01*
X17250Y6592D02*Y6192D01*
X17150Y6492D02*X17250Y6592D01*
X17420Y6192D02*X17670Y6442D01*
Y6592D02*Y6442D01*
X17420Y6592D02*X17670D01*
X10725Y8270D02*X10925D01*
X10975Y8220D01*
Y8120D01*
X10925Y8070D02*X10975Y8120D01*
X10775Y8070D02*X10925D01*
X10775Y8270D02*Y7870D01*
Y8070D02*X10975Y7870D01*
X11145D02*X11245D01*
X11195Y8270D02*Y7870D01*
X11095Y8170D02*X11195Y8270D01*
X11415Y7870D02*X11515D01*
X11465Y8270D02*Y7870D01*
X11365Y8170D02*X11465Y8270D01*
X13439Y9867D02*X13589D01*
X13389Y9917D02*X13439Y9867D01*
X13389Y10217D02*Y9917D01*
Y10217D02*X13439Y10267D01*
X13589D01*
X13759Y9867D02*X13859D01*
X13809Y10267D02*Y9867D01*
X13709Y10167D02*X13809Y10267D01*
X13979Y9917D02*X14029Y9867D01*
X13979Y10217D02*Y9917D01*
Y10217D02*X14029Y10267D01*
X14129D01*
X14179Y10217D01*
Y9917D01*
X14129Y9867D02*X14179Y9917D01*
X14029Y9867D02*X14129D01*
X13979Y9967D02*X14179Y10167D01*
X8416Y5329D02*Y4929D01*
X8566Y5329D02*X8616Y5279D01*
Y4979D01*
X8566Y4929D02*X8616Y4979D01*
X8366Y4929D02*X8566D01*
X8366Y5329D02*X8566D01*
X8736Y5129D02*X8936Y5329D01*
X8736Y5129D02*X8986D01*
X8936Y5329D02*Y4929D01*
X10706Y5276D02*X10906D01*
X10956Y5226D01*
Y5126D01*
X10906Y5076D02*X10956Y5126D01*
X10756Y5076D02*X10906D01*
X10756Y5276D02*Y4876D01*
Y5076D02*X10956Y4876D01*
X11126D02*X11226D01*
X11176Y5276D02*Y4876D01*
X11076Y5176D02*X11176Y5276D01*
X14313Y8185D02*X14663D01*
X14313D02*X14263Y8135D01*
Y8035D01*
X14313Y7985D01*
X14663D01*
Y7715D02*X14613Y7665D01*
X14663Y7815D02*Y7715D01*
X14613Y7865D02*X14663Y7815D01*
X14313Y7865D02*X14613D01*
X14313D02*X14263Y7815D01*
X14463Y7715D02*X14413Y7665D01*
X14463Y7865D02*Y7715D01*
X14263Y7815D02*Y7715D01*
X14313Y7665D01*
X14413D01*
X14616Y11507D02*X14766D01*
X14566Y11557D02*X14616Y11507D01*
X14566Y11857D02*Y11557D01*
Y11857D02*X14616Y11907D01*
X14766D01*
X14937Y11507D02*X15037D01*
X14987Y11907D02*Y11507D01*
X14887Y11807D02*X14987Y11907D01*
X15307D02*X15357Y11857D01*
X15207Y11907D02*X15307D01*
X15157Y11857D02*X15207Y11907D01*
X15157Y11857D02*Y11557D01*
X15207Y11507D01*
X15307Y11707D02*X15357Y11657D01*
X15157Y11707D02*X15307D01*
X15207Y11507D02*X15307D01*
X15357Y11557D01*
Y11657D02*Y11557D01*
X16830Y7774D02*X17030D01*
X17080Y7724D01*
Y7624D01*
X17030Y7574D02*X17080Y7624D01*
X16880Y7574D02*X17030D01*
X16880Y7774D02*Y7374D01*
Y7574D02*X17080Y7374D01*
X17250D02*X17350D01*
X17300Y7774D02*Y7374D01*
X17200Y7674D02*X17300Y7774D01*
X17470Y7374D02*X17720Y7624D01*
Y7774D02*Y7624D01*
X17470Y7774D02*X17720D01*
X17671Y11606D02*X17821D01*
X17621Y11656D02*X17671Y11606D01*
X17621Y11956D02*Y11656D01*
Y11956D02*X17671Y12006D01*
X17821D01*
X17991Y11606D02*X18091D01*
X18041Y12006D02*Y11606D01*
X17941Y11906D02*X18041Y12006D01*
X18211Y11606D02*X18411Y11806D01*
Y11956D02*Y11806D01*
X18361Y12006D02*X18411Y11956D01*
X18261Y12006D02*X18361D01*
X18211Y11956D02*X18261Y12006D01*
X18211Y11956D02*Y11856D01*
X18261Y11806D01*
X18411D01*
X17615Y12995D02*X17815D01*
X17865Y12945D01*
Y12845D01*
X17815Y12795D02*X17865Y12845D01*
X17665Y12795D02*X17815D01*
X17665Y12995D02*Y12595D01*
Y12795D02*X17865Y12595D01*
X18035D02*X18135D01*
X18085Y12995D02*Y12595D01*
X17985Y12895D02*X18085Y12995D01*
X18255Y12945D02*X18305Y12995D01*
X18405D01*
X18455Y12945D01*
Y12645D01*
X18405Y12595D02*X18455Y12645D01*
X18305Y12595D02*X18405D01*
X18255Y12645D02*X18305Y12595D01*
Y12795D02*X18455D01*
X14613Y12496D02*X14763D01*
X14563Y12546D02*X14613Y12496D01*
X14563Y12846D02*Y12546D01*
Y12846D02*X14613Y12896D01*
X14763D01*
X14883Y12846D02*X14933Y12896D01*
X15033D01*
X15083Y12846D01*
Y12546D01*
X15033Y12496D02*X15083Y12546D01*
X14933Y12496D02*X15033D01*
X14883Y12546D02*X14933Y12496D01*
Y12696D02*X15083D01*
X19681Y8959D02*X19881D01*
X19931Y8909D01*
Y8809D01*
X19881Y8759D02*X19931Y8809D01*
X19731Y8759D02*X19881D01*
X19731Y8959D02*Y8559D01*
Y8759D02*X19931Y8559D01*
X20052D02*X20252Y8759D01*
Y8909D02*Y8759D01*
X20202Y8959D02*X20252Y8909D01*
X20102Y8959D02*X20202D01*
X20052Y8909D02*X20102Y8959D01*
X20052Y8909D02*Y8809D01*
X20102Y8759D01*
X20252D01*
X20225Y7983D02*X20575D01*
X20225D02*X20175Y7933D01*
Y7833D01*
X20225Y7783D01*
X20575D01*
X20525Y7663D02*X20575Y7613D01*
Y7513D01*
X20525Y7463D01*
X20225D02*X20525D01*
X20175Y7513D02*X20225Y7463D01*
X20175Y7613D02*Y7513D01*
X20225Y7663D02*X20175Y7613D01*
X20375D02*Y7463D01*
X21112Y14479D02*X21385D01*
X21112D02*X21073Y14440D01*
Y14362D01*
X21112Y14323D01*
X21385D01*
X21229Y14230D02*X21385Y14074D01*
X21229Y14230D02*Y14035D01*
X21073Y14074D02*X21385D01*
X19731Y9544D02*X19881D01*
X19681Y9594D02*X19731Y9544D01*
X19681Y9894D02*Y9594D01*
Y9894D02*X19731Y9944D01*
X19881D01*
X20152D02*X20202Y9894D01*
X20052Y9944D02*X20152D01*
X20002Y9894D02*X20052Y9944D01*
X20002Y9894D02*Y9594D01*
X20052Y9544D01*
X20152Y9744D02*X20202Y9694D01*
X20002Y9744D02*X20152D01*
X20052Y9544D02*X20152D01*
X20202Y9594D01*
Y9694D02*Y9594D01*
X20386Y12404D02*X20586D01*
X20636Y12354D01*
Y12254D01*
X20586Y12204D02*X20636Y12254D01*
X20436Y12204D02*X20586D01*
X20436Y12404D02*Y12004D01*
Y12204D02*X20636Y12004D01*
X20806D02*X20906D01*
X20856Y12404D02*Y12004D01*
X20756Y12304D02*X20856Y12404D01*
X21026Y12054D02*X21076Y12004D01*
X21026Y12354D02*Y12054D01*
Y12354D02*X21076Y12404D01*
X21176D01*
X21226Y12354D01*
Y12054D01*
X21176Y12004D02*X21226Y12054D01*
X21076Y12004D02*X21176D01*
X21026Y12104D02*X21226Y12304D01*
X20362Y10974D02*X20512D01*
X20312Y11024D02*X20362Y10974D01*
X20312Y11324D02*Y11024D01*
Y11324D02*X20362Y11374D01*
X20512D01*
X20682Y10974D02*X20782D01*
X20732Y11374D02*Y10974D01*
X20632Y11274D02*X20732Y11374D01*
X20902D02*X21102D01*
X20902D02*Y11174D01*
X20952Y11224D01*
X21052D01*
X21102Y11174D01*
Y11024D01*
X21052Y10974D02*X21102Y11024D01*
X20952Y10974D02*X21052D01*
X20902Y11024D02*X20952Y10974D01*
X14628Y16533D02*X14778D01*
X14578Y16583D02*X14628Y16533D01*
X14578Y16883D02*Y16583D01*
Y16883D02*X14628Y16933D01*
X14778D01*
X14898D02*X15098D01*
X14898D02*Y16733D01*
X14948Y16783D01*
X15048D01*
X15098Y16733D01*
Y16583D01*
X15048Y16533D02*X15098Y16583D01*
X14948Y16533D02*X15048D01*
X14898Y16583D02*X14948Y16533D01*
X16235Y19683D02*X16435D01*
X16485Y19633D01*
Y19533D01*
X16435Y19483D02*X16485Y19533D01*
X16285Y19483D02*X16435D01*
X16285Y19683D02*Y19283D01*
Y19483D02*X16485Y19283D01*
X16655D02*X16755D01*
X16705Y19683D02*Y19283D01*
X16605Y19583D02*X16705Y19683D01*
X16875D02*X17075D01*
X16875D02*Y19483D01*
X16925Y19533D01*
X17025D01*
X17075Y19483D01*
Y19333D01*
X17025Y19283D02*X17075Y19333D01*
X16925Y19283D02*X17025D01*
X16875Y19333D02*X16925Y19283D01*
X18258Y19283D02*X18408D01*
X18208Y19333D02*X18258Y19283D01*
X18208Y19633D02*Y19333D01*
Y19633D02*X18258Y19683D01*
X18408D01*
X18528Y19633D02*X18578Y19683D01*
X18728D01*
X18778Y19633D01*
Y19533D01*
X18528Y19283D02*X18778Y19533D01*
X18528Y19283D02*X18778D01*
X18948D02*X19048D01*
X18998Y19683D02*Y19283D01*
X18898Y19583D02*X18998Y19683D01*
X19480Y20683D02*X19630D01*
Y20333D01*
X19580Y20283D02*X19630Y20333D01*
X19530Y20283D02*X19580D01*
X19480Y20333D02*X19530Y20283D01*
X19800D02*X19900D01*
X19850Y20683D02*Y20283D01*
X19750Y20583D02*X19850Y20683D01*
X20633Y15154D02*X20783D01*
X20583Y15204D02*X20633Y15154D01*
X20583Y15504D02*Y15204D01*
Y15504D02*X20633Y15554D01*
X20783D01*
X20903Y15204D02*X20953Y15154D01*
X20903Y15304D02*Y15204D01*
Y15304D02*X20953Y15354D01*
X21053D01*
X21103Y15304D01*
Y15204D01*
X21053Y15154D02*X21103Y15204D01*
X20953Y15154D02*X21053D01*
X20903Y15404D02*X20953Y15354D01*
X20903Y15504D02*Y15404D01*
Y15504D02*X20953Y15554D01*
X21053D01*
X21103Y15504D01*
Y15404D01*
X21053Y15354D02*X21103Y15404D01*
X21160Y17518D02*Y17118D01*
X21410Y17518D02*Y17118D01*
X21160Y17318D02*X21410D01*
X21530Y17468D02*X21580Y17518D01*
X21730D01*
X21780Y17468D01*
Y17368D01*
X21530Y17118D02*X21780Y17368D01*
X21530Y17118D02*X21780D01*
M02*
