M48
INCH
T13C0.025
T24C0.040
T25C0.085
T28C0.046
T29C0.045
T30C0.027
T31C0.012
T39C0.032
%
T31
X008366Y006102
X011318Y014763
X011417Y012795
X010925Y010728
X013976Y010728
X014566Y007972
X010925Y010039
X011909Y010039
X012598Y005118
X011614Y004527
X015059Y013484
X010531Y011811
X009547Y012893
X021358Y014271
X022047Y010334
X021456Y013484
X019389Y018110
X015059Y017519
X016437Y020866
X016338Y006397
X016830Y010728
X016929Y014468
X016830Y012696
X018307Y014271
X016338Y011122
X017322Y012303
X017322Y015944
X017322Y010236
X015682Y009087
X018503Y004527
X018700Y008563
T13
X007086Y012499
X006102Y012499
X006594Y012991
T30
X006594Y012007
T39
X005532Y012499
X007658Y012499
T24
X017126Y018307
X018126Y018307
X010629Y018307
X011629Y018307
X014370Y005511
X016338Y005511
T29
X009252Y009086
X009252Y008086
X009252Y007086
T28
X006496Y009496
X006496Y008496
T25
X015126Y020307
X019126Y016307
X008629Y020307
X012629Y016307
M30
