G04 start of page 3 for group 1 idx 0 *
G04 Title: PD-ac, top *
G04 Creator: pcb 1.99x *
G04 CreationDate: Fri 09 Jan 2009 03:59:07 PM GMT UTC *
G04 For: kmk *
G04 Format: Gerber/RS-274X *
G04 PCB-Dimensions: 275591 314961 *
G04 PCB-Coordinate-Origin: lower left *
%MOIN*%
%FSLAX24Y24*%
%LNFRONT*%
%ADD11C,0.0200*%
%ADD12C,0.0300*%
%ADD13C,0.0250*%
%ADD14C,0.0150*%
%ADD15C,0.0700*%
%ADD16C,0.1600*%
%ADD17C,0.0600*%
%ADD18C,0.0510*%
%ADD19C,0.0810*%
%ADD20C,0.0887*%
%ADD21C,0.0580*%
%ADD22C,0.0280*%
%ADD24C,0.0400*%
%ADD25C,0.0850*%
%ADD26C,0.1200*%
%ADD27C,0.0315*%
%ADD28C,0.0460*%
%ADD29C,0.0450*%
%ADD30C,0.0270*%
%ADD31C,0.0120*%
%ADD32C,0.0088*%
%ADD33C,0.0060*%
%ADD34R,0.0240X0.0240*%
%ADD35C,0.0344*%
%ADD36R,0.0344X0.0344*%
G54D11*G36*
X11909Y12335D02*X12193D01*
X12221Y12337D01*
X12248Y12344D01*
X12273Y12356D01*
X12296Y12372D01*
X12316Y12392D01*
X12332Y12415D01*
X12344Y12440D01*
X12351Y12467D01*
X12353Y12495D01*
Y13087D01*
X12433Y13008D01*
Y12495D01*
X12435Y12467D01*
X12443Y12440D01*
X12455Y12415D01*
X12471Y12392D01*
X12490Y12372D01*
X12513Y12356D01*
X12538Y12344D01*
X12565Y12337D01*
X12593Y12335D01*
X13185D01*
X13082Y12231D01*
X12609D01*
X12588Y12229D01*
X12568Y12224D01*
X12549Y12215D01*
X12532Y12203D01*
X12517Y12188D01*
X12505Y12171D01*
X12496Y12152D01*
X12491Y12132D01*
X12489Y12111D01*
Y11511D01*
X12491Y11490D01*
X12496Y11470D01*
X12505Y11451D01*
X12517Y11433D01*
X12532Y11419D01*
X12549Y11407D01*
X12568Y11398D01*
X12588Y11392D01*
X12609Y11390D01*
X13209D01*
X13230Y11392D01*
X13250Y11398D01*
X13269Y11407D01*
X13286Y11419D01*
X13301Y11433D01*
X13313Y11451D01*
X13322Y11470D01*
X13327Y11490D01*
X13329Y11511D01*
Y11983D01*
X13608Y12262D01*
X13608Y12262D01*
X13613Y12268D01*
X13618Y12273D01*
X13622Y12279D01*
X13627Y12285D01*
X13631Y12292D01*
X13635Y12298D01*
X13638Y12304D01*
X13643Y12311D01*
X13646Y12320D01*
X13648Y12326D01*
X13650Y12332D01*
X13653Y12340D01*
X13655Y12349D01*
X13656Y12355D01*
X13657Y12362D01*
X13658Y12370D01*
Y12379D01*
X13659Y12385D01*
Y13163D01*
X13661Y13162D01*
X13687Y13155D01*
X13713Y13153D01*
X13973D01*
Y12312D01*
X13973Y12304D01*
Y12297D01*
X13975Y12289D01*
X13975Y12282D01*
X13977Y12275D01*
X13979Y12267D01*
X13981Y12259D01*
X13983Y12252D01*
X13986Y12245D01*
X13989Y12238D01*
X13993Y12232D01*
X13996Y12225D01*
X14001Y12218D01*
X14004Y12212D01*
X14009Y12206D01*
X14014Y12200D01*
X14019Y12194D01*
X14024Y12188D01*
X14307Y11905D01*
Y11412D01*
X14309Y11388D01*
X14316Y11364D01*
X14324Y11347D01*
X11909D01*
Y11390D01*
X12209D01*
X12230Y11392D01*
X12250Y11398D01*
X12269Y11407D01*
X12286Y11419D01*
X12301Y11433D01*
X12313Y11451D01*
X12322Y11470D01*
X12327Y11490D01*
X12329Y11511D01*
Y12111D01*
X12327Y12132D01*
X12322Y12152D01*
X12313Y12171D01*
X12301Y12188D01*
X12286Y12203D01*
X12269Y12215D01*
X12250Y12224D01*
X12230Y12229D01*
X12209Y12231D01*
X11909D01*
Y12335D01*
G37*
G36*
X17818Y13359D02*X18115D01*
X18135Y13361D01*
X18156Y13366D01*
X18175Y13375D01*
X18192Y13387D01*
X18207Y13402D01*
X18219Y13419D01*
X18228Y13438D01*
X18233Y13458D01*
X18235Y13479D01*
Y13952D01*
X18315Y14032D01*
X18348Y14035D01*
X18389Y14046D01*
X18394Y14048D01*
Y13479D01*
X18396Y13458D01*
X18402Y13438D01*
X18410Y13419D01*
X18422Y13402D01*
X18437Y13387D01*
X18454Y13375D01*
X18473Y13366D01*
X18494Y13361D01*
X18515Y13359D01*
X19115D01*
X19133Y13361D01*
X18987Y13215D01*
X18515D01*
X18494Y13213D01*
X18473Y13208D01*
X18454Y13199D01*
X18437Y13187D01*
X18422Y13172D01*
X18410Y13155D01*
X18402Y13136D01*
X18396Y13116D01*
X18394Y13095D01*
Y12495D01*
X18396Y12474D01*
X18402Y12454D01*
X18410Y12435D01*
X18422Y12418D01*
X18437Y12403D01*
X18454Y12391D01*
X18473Y12382D01*
X18494Y12376D01*
X18515Y12375D01*
X19115D01*
X19135Y12376D01*
X19156Y12382D01*
X19175Y12391D01*
X19192Y12403D01*
X19207Y12418D01*
X19219Y12435D01*
X19228Y12454D01*
X19233Y12474D01*
X19235Y12495D01*
Y12968D01*
X19459Y13192D01*
X19455Y13175D01*
X19453Y13149D01*
Y12909D01*
X19455Y12883D01*
X19462Y12858D01*
X19473Y12834D01*
X19488Y12813D01*
X19506Y12794D01*
X19528Y12779D01*
X19551Y12768D01*
X19577Y12761D01*
X19603Y12759D01*
X19863D01*
Y12728D01*
X19561Y12427D01*
X19547Y12426D01*
X19509Y12416D01*
X19474Y12399D01*
X19442Y12377D01*
X19414Y12349D01*
X19391Y12317D01*
X19375Y12281D01*
X19365Y12243D01*
X19363Y12229D01*
X19238Y12104D01*
Y12110D01*
X19236Y12131D01*
X19231Y12151D01*
X19222Y12170D01*
X19210Y12188D01*
X19195Y12202D01*
X19178Y12214D01*
X19159Y12223D01*
X19139Y12229D01*
X19118Y12230D01*
X18518D01*
X18497Y12229D01*
X18477Y12223D01*
X18458Y12214D01*
X18440Y12202D01*
X18426Y12188D01*
X18414Y12170D01*
X18405Y12151D01*
X18399Y12131D01*
X18397Y12110D01*
Y11510D01*
X18399Y11489D01*
X18405Y11469D01*
X18414Y11450D01*
X18426Y11433D01*
X18440Y11418D01*
X18458Y11406D01*
X18477Y11397D01*
X18497Y11392D01*
X18518Y11390D01*
X19118D01*
X19139Y11392D01*
X19159Y11397D01*
X19178Y11406D01*
X19195Y11418D01*
X19210Y11433D01*
X19222Y11450D01*
X19231Y11469D01*
X19236Y11489D01*
X19238Y11510D01*
Y11642D01*
X19245Y11644D01*
X19252Y11646D01*
X19260Y11650D01*
X19266Y11652D01*
X19272Y11655D01*
X19280Y11659D01*
X19287Y11664D01*
X19293Y11667D01*
X19297Y11671D01*
X19305Y11677D01*
X19311Y11683D01*
X19316Y11687D01*
X19361Y11732D01*
Y11347D01*
X17818D01*
Y11390D01*
X18118D01*
X18139Y11392D01*
X18159Y11397D01*
X18178Y11406D01*
X18195Y11418D01*
X18210Y11433D01*
X18222Y11450D01*
X18231Y11469D01*
X18236Y11489D01*
X18238Y11510D01*
Y12110D01*
X18236Y12131D01*
X18231Y12151D01*
X18222Y12170D01*
X18210Y12188D01*
X18195Y12202D01*
X18178Y12214D01*
X18159Y12223D01*
X18139Y12229D01*
X18118Y12230D01*
X17818D01*
Y12375D01*
X18115D01*
X18135Y12376D01*
X18156Y12382D01*
X18175Y12391D01*
X18192Y12403D01*
X18207Y12418D01*
X18219Y12435D01*
X18228Y12454D01*
X18233Y12474D01*
X18235Y12495D01*
Y13095D01*
X18233Y13116D01*
X18228Y13136D01*
X18219Y13155D01*
X18207Y13172D01*
X18192Y13187D01*
X18175Y13199D01*
X18156Y13208D01*
X18135Y13213D01*
X18115Y13215D01*
X17818D01*
Y13359D01*
G37*
G36*
X16207Y13153D02*X16633D01*
X16659Y13155D01*
X16684Y13162D01*
X16708Y13173D01*
X16729Y13188D01*
X16748Y13206D01*
X16763Y13228D01*
X16774Y13251D01*
X16780Y13277D01*
X16783Y13303D01*
Y13543D01*
X16780Y13569D01*
X16774Y13594D01*
X16763Y13618D01*
X16748Y13639D01*
X16729Y13658D01*
X16708Y13673D01*
X16707Y13673D01*
X16708Y13673D01*
X16729Y13688D01*
X16748Y13706D01*
X16763Y13728D01*
X16772Y13748D01*
X16958D01*
X16966Y13748D01*
X16973D01*
X16981Y13750D01*
X16988Y13750D01*
X16996Y13752D01*
X17003Y13754D01*
X17011Y13756D01*
X17018Y13758D01*
X17026Y13762D01*
X17032Y13764D01*
X17037Y13767D01*
X17046Y13771D01*
X17053Y13776D01*
X17058Y13779D01*
X17063Y13783D01*
X17071Y13789D01*
X17077Y13795D01*
X17082Y13799D01*
X17401Y14118D01*
X17396Y14100D01*
X17394Y14079D01*
Y13479D01*
X17396Y13458D01*
X17402Y13438D01*
X17410Y13419D01*
X17422Y13402D01*
X17437Y13387D01*
X17454Y13375D01*
X17473Y13366D01*
X17494Y13361D01*
X17515Y13359D01*
X17818D01*
Y13215D01*
X17515D01*
X17494Y13213D01*
X17473Y13208D01*
X17454Y13199D01*
X17437Y13187D01*
X17422Y13172D01*
X17410Y13155D01*
X17402Y13136D01*
X17396Y13116D01*
X17394Y13095D01*
Y12495D01*
X17396Y12474D01*
X17402Y12454D01*
X17410Y12435D01*
X17422Y12418D01*
X17437Y12403D01*
X17454Y12391D01*
X17473Y12382D01*
X17494Y12376D01*
X17515Y12375D01*
X17818D01*
Y12230D01*
X17518D01*
X17497Y12229D01*
X17477Y12223D01*
X17458Y12214D01*
X17440Y12202D01*
X17426Y12188D01*
X17414Y12170D01*
X17405Y12151D01*
X17399Y12131D01*
X17397Y12110D01*
Y11510D01*
X17399Y11489D01*
X17405Y11469D01*
X17414Y11450D01*
X17426Y11433D01*
X17440Y11418D01*
X17458Y11406D01*
X17477Y11397D01*
X17497Y11392D01*
X17518Y11390D01*
X17818D01*
Y11347D01*
X16421D01*
X16420Y11347D01*
X16380Y11358D01*
X16338Y11362D01*
X16296Y11358D01*
X16256Y11347D01*
X16255Y11347D01*
X16207D01*
Y12521D01*
X16667D01*
X16676Y12513D01*
X16710Y12489D01*
X16748Y12471D01*
X16789Y12460D01*
X16830Y12456D01*
X16872Y12460D01*
X16912Y12471D01*
X16950Y12489D01*
X16985Y12513D01*
X17014Y12542D01*
X17038Y12576D01*
X17056Y12614D01*
X17067Y12655D01*
X17070Y12696D01*
X17067Y12738D01*
X17056Y12779D01*
X17038Y12816D01*
X17014Y12851D01*
X16985Y12880D01*
X16950Y12904D01*
X16912Y12922D01*
X16872Y12933D01*
X16830Y12936D01*
X16789Y12933D01*
X16748Y12922D01*
X16710Y12904D01*
X16676Y12880D01*
X16667Y12871D01*
X16207D01*
Y13153D01*
G37*
G36*
X19126Y17716D02*X20078D01*
Y14799D01*
X19603D01*
X19577Y14797D01*
X19551Y14790D01*
X19528Y14779D01*
X19506Y14764D01*
X19488Y14746D01*
X19473Y14724D01*
X19462Y14700D01*
X19455Y14675D01*
X19453Y14649D01*
Y14409D01*
X19455Y14383D01*
X19462Y14358D01*
X19473Y14334D01*
X19488Y14313D01*
X19506Y14294D01*
X19528Y14279D01*
X19528Y14279D01*
X19528Y14279D01*
X19506Y14264D01*
X19488Y14246D01*
X19473Y14224D01*
X19463Y14204D01*
X19126D01*
Y14347D01*
X19140Y14350D01*
X19159Y14359D01*
X19176Y14371D01*
X19191Y14386D01*
X19203Y14403D01*
X19212Y14422D01*
X19217Y14442D01*
X19219Y14463D01*
Y15063D01*
X19217Y15084D01*
X19212Y15104D01*
X19203Y15123D01*
X19191Y15141D01*
X19176Y15155D01*
X19159Y15167D01*
X19140Y15176D01*
X19126Y15180D01*
Y15407D01*
X19282Y15420D01*
X19433Y15461D01*
X19576Y15527D01*
X19704Y15617D01*
X19815Y15728D01*
X19905Y15857D01*
X19971Y15999D01*
X20012Y16150D01*
X20026Y16307D01*
X20012Y16463D01*
X19971Y16614D01*
X19905Y16757D01*
X19815Y16885D01*
X19704Y16996D01*
X19576Y17086D01*
X19433Y17152D01*
X19282Y17193D01*
X19126Y17207D01*
Y17716D01*
G37*
G36*
Y14204D02*X19065D01*
X19058Y14204D01*
X19049D01*
X19041Y14202D01*
X19034Y14201D01*
X19028Y14200D01*
X19026Y14199D01*
X18535D01*
X18543Y14230D01*
X18546Y14263D01*
X18626Y14343D01*
X19099D01*
X19120Y14345D01*
X19126Y14347D01*
Y14204D01*
G37*
G36*
X17509Y17716D02*X19126D01*
Y17207D01*
X18969Y17193D01*
X18818Y17152D01*
X18676Y17086D01*
X18547Y16996D01*
X18436Y16885D01*
X18346Y16757D01*
X18280Y16614D01*
X18239Y16463D01*
X18226Y16307D01*
X18239Y16150D01*
X18280Y15999D01*
X18346Y15857D01*
X18436Y15728D01*
X18547Y15617D01*
X18676Y15527D01*
X18818Y15461D01*
X18969Y15420D01*
X19126Y15407D01*
Y15180D01*
X19120Y15182D01*
X19099Y15184D01*
X18499D01*
X18478Y15182D01*
X18458Y15176D01*
X18439Y15167D01*
X18421Y15155D01*
X18407Y15141D01*
X18395Y15123D01*
X18386Y15104D01*
X18380Y15084D01*
X18379Y15063D01*
Y14591D01*
X18298Y14511D01*
X18265Y14508D01*
X18225Y14497D01*
X18219Y14494D01*
Y15063D01*
X18217Y15084D01*
X18212Y15104D01*
X18203Y15123D01*
X18191Y15141D01*
X18176Y15155D01*
X18159Y15167D01*
X18140Y15176D01*
X18120Y15182D01*
X18099Y15184D01*
X17509D01*
Y15849D01*
X17512Y15849D01*
X17520Y15850D01*
X17529Y15854D01*
X17536Y15858D01*
X17543Y15864D01*
X17548Y15871D01*
X17552Y15878D01*
X17555Y15886D01*
X17560Y15910D01*
X17562Y15934D01*
X17562Y15959D01*
X17559Y15983D01*
X17554Y16007D01*
Y16007D01*
X17551Y16015D01*
X17547Y16022D01*
X17541Y16029D01*
X17535Y16035D01*
X17527Y16039D01*
X17519Y16042D01*
X17510Y16043D01*
X17509D01*
Y17716D01*
G37*
G36*
X17324D02*X17509D01*
Y16043D01*
X17502D01*
X17493Y16042D01*
X17485Y16039D01*
X17477Y16035D01*
X17471Y16029D01*
X17465Y16022D01*
X17461Y16015D01*
X17458Y16007D01*
X17456Y15998D01*
Y15989D01*
X17458Y15981D01*
X17460Y15967D01*
X17462Y15953D01*
X17462Y15939D01*
X17461Y15925D01*
X17458Y15911D01*
X17457Y15902D01*
X17457Y15893D01*
X17459Y15885D01*
X17462Y15877D01*
X17466Y15869D01*
X17472Y15863D01*
X17479Y15857D01*
X17486Y15853D01*
X17495Y15850D01*
X17503Y15849D01*
X17509Y15849D01*
Y15184D01*
X17499D01*
X17478Y15182D01*
X17458Y15176D01*
X17439Y15167D01*
X17421Y15155D01*
X17407Y15141D01*
X17395Y15123D01*
X17386Y15104D01*
X17380Y15084D01*
X17379Y15063D01*
Y14591D01*
X17324Y14536D01*
Y15705D01*
X17337Y15705D01*
X17361Y15708D01*
X17384Y15713D01*
X17384D01*
X17393Y15716D01*
X17400Y15720D01*
X17407Y15726D01*
X17412Y15732D01*
X17417Y15740D01*
X17420Y15748D01*
X17421Y15757D01*
Y15765D01*
X17420Y15774D01*
X17417Y15782D01*
X17412Y15790D01*
X17407Y15796D01*
X17400Y15802D01*
X17393Y15806D01*
X17384Y15809D01*
X17376Y15811D01*
X17367D01*
X17359Y15809D01*
X17345Y15806D01*
X17331Y15805D01*
X17324D01*
Y16084D01*
X17328D01*
X17342Y16083D01*
X17356Y16080D01*
X17365Y16079D01*
X17373Y16079D01*
X17382Y16081D01*
X17390Y16084D01*
X17398Y16088D01*
X17404Y16094D01*
X17410Y16101D01*
X17414Y16109D01*
X17417Y16117D01*
X17418Y16125D01*
X17418Y16134D01*
X17416Y16143D01*
X17413Y16151D01*
X17409Y16158D01*
X17403Y16165D01*
X17396Y16170D01*
X17389Y16175D01*
X17380Y16177D01*
X17357Y16182D01*
X17332Y16184D01*
X17324Y16184D01*
Y17716D01*
G37*
G36*
X17136D02*X17324D01*
Y16184D01*
X17308Y16184D01*
X17284Y16181D01*
X17260Y16176D01*
X17260D01*
X17252Y16173D01*
X17245Y16169D01*
X17238Y16163D01*
X17232Y16157D01*
X17228Y16149D01*
X17225Y16141D01*
X17223Y16132D01*
Y16124D01*
X17225Y16115D01*
X17228Y16107D01*
X17232Y16099D01*
X17238Y16093D01*
X17244Y16087D01*
X17252Y16083D01*
X17260Y16080D01*
X17269Y16078D01*
X17277D01*
X17286Y16080D01*
X17300Y16083D01*
X17314Y16084D01*
X17324Y16084D01*
Y15805D01*
X17316Y15805D01*
X17302Y15806D01*
X17288Y15809D01*
X17280Y15810D01*
X17271Y15810D01*
X17263Y15808D01*
X17254Y15805D01*
X17247Y15801D01*
X17240Y15795D01*
X17235Y15788D01*
X17231Y15780D01*
X17228Y15772D01*
X17226Y15764D01*
X17227Y15755D01*
X17228Y15746D01*
X17231Y15738D01*
X17236Y15731D01*
X17242Y15724D01*
X17248Y15719D01*
X17256Y15714D01*
X17264Y15712D01*
X17288Y15707D01*
X17312Y15705D01*
X17324Y15705D01*
Y14536D01*
X17137Y14349D01*
X17154Y14386D01*
X17165Y14426D01*
X17169Y14468D01*
X17165Y14510D01*
X17154Y14550D01*
X17136Y14588D01*
X17136Y14589D01*
Y15846D01*
X17143D01*
X17152Y15847D01*
X17160Y15850D01*
X17167Y15854D01*
X17174Y15860D01*
X17180Y15867D01*
X17184Y15874D01*
X17187Y15882D01*
X17189Y15891D01*
Y15900D01*
X17187Y15908D01*
X17184Y15922D01*
X17183Y15936D01*
X17182Y15950D01*
X17184Y15964D01*
X17186Y15978D01*
X17188Y15987D01*
X17188Y15996D01*
X17186Y16004D01*
X17183Y16012D01*
X17178Y16020D01*
X17173Y16026D01*
X17166Y16032D01*
X17158Y16036D01*
X17150Y16039D01*
X17141Y16040D01*
X17136Y16040D01*
Y17716D01*
G37*
G36*
X16207D02*X17136D01*
Y16040D01*
X17133Y16040D01*
X17124Y16039D01*
X17116Y16035D01*
X17109Y16031D01*
X17102Y16025D01*
X17097Y16018D01*
X17092Y16011D01*
X17089Y16003D01*
X17085Y15979D01*
X17083Y15955D01*
X17083Y15930D01*
X17085Y15906D01*
X17090Y15882D01*
Y15882D01*
X17093Y15874D01*
X17098Y15867D01*
X17103Y15860D01*
X17110Y15854D01*
X17118Y15850D01*
X17126Y15847D01*
X17134Y15846D01*
X17136D01*
Y14589D01*
X17113Y14622D01*
X17083Y14652D01*
X17049Y14676D01*
X17011Y14694D01*
X16970Y14704D01*
X16929Y14708D01*
X16887Y14704D01*
X16847Y14694D01*
X16809Y14676D01*
X16774Y14652D01*
X16753Y14631D01*
X16748Y14639D01*
X16729Y14658D01*
X16708Y14673D01*
X16707Y14673D01*
X16708Y14673D01*
X16729Y14688D01*
X16748Y14706D01*
X16763Y14728D01*
X16774Y14751D01*
X16780Y14777D01*
X16783Y14803D01*
Y15043D01*
X16780Y15069D01*
X16774Y15094D01*
X16763Y15118D01*
X16748Y15139D01*
X16729Y15158D01*
X16708Y15173D01*
X16684Y15184D01*
X16659Y15190D01*
X16633Y15193D01*
X16207D01*
Y17716D01*
G37*
G36*
X15245Y15441D02*X15247Y15427D01*
X15252Y15407D01*
X15261Y15388D01*
X15273Y15370D01*
X15288Y15356D01*
X15305Y15344D01*
X15324Y15335D01*
X15344Y15329D01*
X15365Y15327D01*
X15376D01*
Y14074D01*
X15376Y14066D01*
Y14059D01*
X15378Y14051D01*
X15378Y14044D01*
X15380Y14037D01*
X15382Y14029D01*
X15384Y14021D01*
X15386Y14014D01*
X15389Y14008D01*
X15392Y14000D01*
X15396Y13994D01*
X15399Y13987D01*
X15404Y13980D01*
X15407Y13974D01*
X15412Y13969D01*
X15417Y13962D01*
X15422Y13956D01*
X15427Y13951D01*
X15579Y13799D01*
X15584Y13794D01*
X15590Y13789D01*
X15597Y13784D01*
X15602Y13779D01*
X15608Y13776D01*
X15615Y13771D01*
X15617Y13770D01*
X15622Y13751D01*
X15633Y13728D01*
X15648Y13706D01*
X15666Y13688D01*
X15688Y13673D01*
X15688Y13673D01*
X15688Y13673D01*
X15666Y13658D01*
X15648Y13639D01*
X15633Y13618D01*
X15622Y13594D01*
X15615Y13569D01*
X15613Y13543D01*
Y13303D01*
X15615Y13277D01*
X15622Y13251D01*
X15633Y13228D01*
X15648Y13206D01*
X15666Y13188D01*
X15688Y13173D01*
X15711Y13162D01*
X15737Y13155D01*
X15763Y13153D01*
X16207D01*
Y12871D01*
X16184D01*
Y12996D01*
X16182Y13017D01*
X16176Y13038D01*
X16167Y13057D01*
X16155Y13074D01*
X16141Y13089D01*
X16123Y13101D01*
X16104Y13109D01*
X16084Y13115D01*
X16063Y13117D01*
X15463D01*
X15442Y13115D01*
X15422Y13109D01*
X15403Y13101D01*
X15386Y13089D01*
X15371Y13074D01*
X15359Y13057D01*
X15350Y13038D01*
X15345Y13017D01*
X15343Y12996D01*
Y12396D01*
X15345Y12376D01*
X15350Y12355D01*
X15359Y12336D01*
X15371Y12319D01*
X15386Y12304D01*
X15403Y12292D01*
X15422Y12283D01*
X15442Y12278D01*
X15463Y12276D01*
X16063D01*
X16084Y12278D01*
X16104Y12283D01*
X16123Y12292D01*
X16141Y12304D01*
X16155Y12319D01*
X16167Y12336D01*
X16176Y12355D01*
X16182Y12376D01*
X16184Y12396D01*
Y12521D01*
X16207D01*
Y11347D01*
X16171D01*
X16179Y11364D01*
X16186Y11388D01*
X16188Y11412D01*
Y12012D01*
X16186Y12036D01*
X16179Y12060D01*
X16169Y12082D01*
X16155Y12102D01*
X16138Y12120D01*
X16118Y12134D01*
X16096Y12144D01*
X16072Y12150D01*
X16048Y12152D01*
X15448D01*
X15423Y12150D01*
X15400Y12144D01*
X15377Y12134D01*
X15357Y12120D01*
X15340Y12102D01*
X15326Y12082D01*
X15316Y12060D01*
X15309Y12036D01*
X15307Y12012D01*
Y11412D01*
X15309Y11388D01*
X15316Y11364D01*
X15324Y11347D01*
X15245D01*
Y13388D01*
X15248Y13388D01*
X15257Y13390D01*
X15265Y13393D01*
X15272Y13398D01*
X15279Y13403D01*
X15284Y13410D01*
X15289Y13418D01*
X15291Y13426D01*
X15296Y13450D01*
X15298Y13474D01*
X15298Y13498D01*
X15296Y13522D01*
X15290Y13546D01*
Y13546D01*
X15287Y13554D01*
X15283Y13562D01*
X15278Y13568D01*
X15271Y13574D01*
X15263Y13578D01*
X15255Y13581D01*
X15247Y13583D01*
X15245D01*
Y15441D01*
G37*
G36*
Y16371D02*X15257Y16355D01*
X15272Y16340D01*
X15289Y16328D01*
X15308Y16319D01*
X15328Y16313D01*
X15349Y16312D01*
X15490D01*
Y16168D01*
X15365D01*
X15344Y16166D01*
X15324Y16161D01*
X15305Y16152D01*
X15288Y16140D01*
X15273Y16125D01*
X15261Y16108D01*
X15252Y16089D01*
X15247Y16069D01*
X15245Y16055D01*
Y16371D01*
G37*
G36*
Y17716D02*X16207D01*
Y15193D01*
X15763D01*
X15737Y15190D01*
X15726Y15187D01*
Y15327D01*
X15965D01*
X15986Y15329D01*
X16006Y15335D01*
X16025Y15344D01*
X16042Y15356D01*
X16057Y15370D01*
X16069Y15388D01*
X16078Y15407D01*
X16083Y15427D01*
X16085Y15448D01*
Y16048D01*
X16083Y16069D01*
X16078Y16089D01*
X16069Y16108D01*
X16057Y16125D01*
X16042Y16140D01*
X16025Y16152D01*
X16006Y16161D01*
X15986Y16166D01*
X15965Y16168D01*
X15840D01*
Y16312D01*
X15949D01*
X15970Y16313D01*
X15990Y16319D01*
X16009Y16328D01*
X16026Y16340D01*
X16041Y16355D01*
X16053Y16372D01*
X16062Y16391D01*
X16068Y16411D01*
X16069Y16432D01*
Y17032D01*
X16068Y17053D01*
X16062Y17073D01*
X16053Y17092D01*
X16041Y17109D01*
X16026Y17124D01*
X16009Y17136D01*
X15990Y17145D01*
X15970Y17150D01*
X15949Y17152D01*
X15349D01*
X15328Y17150D01*
X15308Y17145D01*
X15289Y17136D01*
X15272Y17124D01*
X15257Y17109D01*
X15245Y17092D01*
Y17424D01*
X15248Y17424D01*
X15257Y17425D01*
X15265Y17428D01*
X15272Y17433D01*
X15279Y17439D01*
X15284Y17445D01*
X15289Y17453D01*
X15291Y17461D01*
X15296Y17485D01*
X15298Y17509D01*
X15298Y17534D01*
X15296Y17558D01*
X15290Y17581D01*
Y17581D01*
X15287Y17590D01*
X15283Y17597D01*
X15278Y17604D01*
X15271Y17609D01*
X15263Y17614D01*
X15255Y17617D01*
X15247Y17618D01*
X15245D01*
Y17716D01*
G37*
G36*
X15060Y17659D02*X15064D01*
X15079Y17658D01*
X15092Y17655D01*
X15101Y17654D01*
X15110Y17654D01*
X15118Y17656D01*
X15126Y17659D01*
X15134Y17663D01*
X15141Y17669D01*
X15146Y17676D01*
X15150Y17683D01*
X15153Y17692D01*
X15154Y17700D01*
X15154Y17709D01*
X15153Y17716D01*
X15245D01*
Y17618D01*
X15238D01*
X15229Y17617D01*
X15221Y17614D01*
X15214Y17609D01*
X15207Y17604D01*
X15201Y17597D01*
X15197Y17590D01*
X15194Y17581D01*
X15192Y17573D01*
Y17564D01*
X15194Y17556D01*
X15197Y17542D01*
X15198Y17528D01*
X15198Y17513D01*
X15197Y17499D01*
X15194Y17485D01*
X15193Y17477D01*
X15193Y17468D01*
X15195Y17460D01*
X15198Y17451D01*
X15203Y17444D01*
X15208Y17437D01*
X15215Y17432D01*
X15223Y17428D01*
X15231Y17425D01*
X15239Y17423D01*
X15245Y17424D01*
Y17092D01*
X15245Y17092D01*
X15236Y17073D01*
X15231Y17053D01*
X15229Y17032D01*
Y16432D01*
X15231Y16411D01*
X15236Y16391D01*
X15245Y16372D01*
X15245Y16371D01*
Y16055D01*
X15245Y16048D01*
Y15448D01*
X15245Y15441D01*
Y13583D01*
X15238D01*
X15229Y13581D01*
X15221Y13578D01*
X15214Y13574D01*
X15207Y13568D01*
X15201Y13562D01*
X15197Y13554D01*
X15194Y13546D01*
X15192Y13537D01*
Y13529D01*
X15194Y13520D01*
X15197Y13506D01*
X15198Y13492D01*
X15198Y13478D01*
X15197Y13464D01*
X15194Y13450D01*
X15193Y13441D01*
X15193Y13433D01*
X15195Y13424D01*
X15198Y13416D01*
X15203Y13409D01*
X15208Y13402D01*
X15215Y13397D01*
X15223Y13392D01*
X15231Y13389D01*
X15239Y13388D01*
X15245Y13388D01*
Y11347D01*
X15171D01*
X15179Y11364D01*
X15186Y11388D01*
X15188Y11412D01*
Y12012D01*
X15186Y12036D01*
X15179Y12060D01*
X15169Y12082D01*
X15155Y12102D01*
X15138Y12120D01*
X15118Y12134D01*
X15096Y12144D01*
X15072Y12150D01*
X15060Y12151D01*
Y12236D01*
X15063D01*
X15091Y12239D01*
X15118Y12246D01*
X15143Y12258D01*
X15166Y12274D01*
X15186Y12293D01*
X15202Y12316D01*
X15214Y12342D01*
X15221Y12369D01*
X15224Y12396D01*
Y12996D01*
X15221Y13024D01*
X15214Y13051D01*
X15202Y13077D01*
X15186Y13099D01*
X15166Y13119D01*
X15143Y13135D01*
X15118Y13147D01*
X15091Y13154D01*
X15063Y13157D01*
X15060D01*
Y13244D01*
X15073Y13244D01*
X15097Y13247D01*
X15121Y13252D01*
X15121D01*
X15129Y13255D01*
X15136Y13259D01*
X15143Y13265D01*
X15149Y13272D01*
X15153Y13279D01*
X15156Y13287D01*
X15158Y13296D01*
Y13305D01*
X15156Y13313D01*
X15153Y13321D01*
X15149Y13329D01*
X15143Y13336D01*
X15136Y13341D01*
X15129Y13346D01*
X15121Y13349D01*
X15112Y13350D01*
X15103D01*
X15095Y13349D01*
X15081Y13346D01*
X15067Y13344D01*
X15060D01*
Y13624D01*
X15064D01*
X15079Y13622D01*
X15092Y13620D01*
X15101Y13618D01*
X15110Y13619D01*
X15118Y13620D01*
X15126Y13623D01*
X15134Y13628D01*
X15141Y13634D01*
X15146Y13640D01*
X15150Y13648D01*
X15153Y13656D01*
X15154Y13665D01*
X15154Y13673D01*
X15153Y13682D01*
X15149Y13690D01*
X15145Y13698D01*
X15139Y13704D01*
X15133Y13710D01*
X15125Y13714D01*
X15117Y13717D01*
X15093Y13721D01*
X15069Y13724D01*
X15060Y13724D01*
Y15375D01*
X15069Y15388D01*
X15078Y15407D01*
X15083Y15427D01*
X15085Y15448D01*
Y16048D01*
X15083Y16069D01*
X15078Y16089D01*
X15069Y16108D01*
X15060Y16121D01*
Y16386D01*
X15062Y16391D01*
X15068Y16411D01*
X15069Y16432D01*
Y17032D01*
X15068Y17053D01*
X15062Y17073D01*
X15060Y17077D01*
Y17280D01*
X15073Y17280D01*
X15097Y17282D01*
X15121Y17287D01*
X15121D01*
X15129Y17290D01*
X15136Y17295D01*
X15143Y17300D01*
X15149Y17307D01*
X15153Y17315D01*
X15156Y17323D01*
X15158Y17331D01*
Y17340D01*
X15156Y17349D01*
X15153Y17357D01*
X15149Y17364D01*
X15143Y17371D01*
X15136Y17377D01*
X15129Y17381D01*
X15121Y17384D01*
X15112Y17386D01*
X15103D01*
X15095Y17384D01*
X15081Y17381D01*
X15067Y17380D01*
X15060D01*
Y17659D01*
G37*
G36*
Y16121D02*X15057Y16125D01*
X15042Y16140D01*
X15025Y16152D01*
X15006Y16161D01*
X14986Y16166D01*
X14965Y16168D01*
X14840D01*
Y16312D01*
X14949D01*
X14970Y16313D01*
X14990Y16319D01*
X15009Y16328D01*
X15026Y16340D01*
X15041Y16355D01*
X15053Y16372D01*
X15060Y16386D01*
Y16121D01*
G37*
G36*
Y13157D02*X14872D01*
Y13385D01*
X14879D01*
X14888Y13386D01*
X14896Y13389D01*
X14904Y13394D01*
X14910Y13399D01*
X14916Y13406D01*
X14920Y13414D01*
X14923Y13422D01*
X14925Y13430D01*
Y13439D01*
X14923Y13448D01*
X14920Y13462D01*
X14919Y13476D01*
X14919Y13490D01*
X14920Y13504D01*
X14923Y13518D01*
X14924Y13526D01*
X14924Y13535D01*
X14922Y13544D01*
X14919Y13552D01*
X14915Y13559D01*
X14909Y13566D01*
X14902Y13571D01*
X14895Y13576D01*
X14886Y13578D01*
X14878Y13580D01*
X14872Y13580D01*
Y14428D01*
X14985Y14541D01*
X14986Y14541D01*
X14991Y14547D01*
X14996Y14552D01*
X15000Y14559D01*
X15005Y14565D01*
X15009Y14572D01*
X15013Y14577D01*
X15016Y14584D01*
X15020Y14591D01*
X15023Y14599D01*
X15026Y14605D01*
X15028Y14611D01*
X15031Y14620D01*
X15032Y14628D01*
X15034Y14635D01*
X15035Y14641D01*
X15036Y14650D01*
Y14658D01*
X15037Y14665D01*
Y15352D01*
X15042Y15356D01*
X15057Y15370D01*
X15060Y15375D01*
Y13724D01*
X15044Y13723D01*
X15020Y13721D01*
X14996Y13716D01*
X14997D01*
X14988Y13713D01*
X14981Y13708D01*
X14974Y13703D01*
X14969Y13696D01*
X14964Y13689D01*
X14961Y13680D01*
X14960Y13672D01*
Y13663D01*
X14961Y13655D01*
X14964Y13646D01*
X14968Y13639D01*
X14974Y13632D01*
X14981Y13627D01*
X14988Y13622D01*
X14996Y13619D01*
X15005Y13618D01*
X15014D01*
X15022Y13619D01*
X15036Y13622D01*
X15050Y13624D01*
X15060Y13624D01*
Y13344D01*
X15053Y13344D01*
X15039Y13345D01*
X15025Y13348D01*
X15016Y13349D01*
X15007Y13349D01*
X14999Y13348D01*
X14991Y13344D01*
X14983Y13340D01*
X14977Y13334D01*
X14971Y13328D01*
X14967Y13320D01*
X14964Y13312D01*
X14963Y13303D01*
X14963Y13294D01*
X14965Y13286D01*
X14968Y13278D01*
X14972Y13270D01*
X14978Y13264D01*
X14985Y13258D01*
X14992Y13254D01*
X15001Y13251D01*
X15024Y13246D01*
X15049Y13244D01*
X15060Y13244D01*
Y13157D01*
G37*
G36*
X14872D02*X14615D01*
X14634Y13162D01*
X14658Y13173D01*
X14679Y13188D01*
X14698Y13206D01*
X14713Y13228D01*
X14724Y13251D01*
X14730Y13277D01*
X14733Y13303D01*
Y13543D01*
X14730Y13569D01*
X14724Y13594D01*
X14713Y13618D01*
X14698Y13639D01*
X14679Y13658D01*
X14658Y13673D01*
X14657Y13673D01*
X14658Y13673D01*
X14679Y13688D01*
X14698Y13706D01*
X14713Y13728D01*
X14724Y13751D01*
X14730Y13777D01*
X14733Y13803D01*
Y14043D01*
X14730Y14069D01*
X14724Y14094D01*
X14713Y14118D01*
X14698Y14139D01*
X14679Y14158D01*
X14658Y14173D01*
X14657Y14173D01*
X14658Y14173D01*
X14679Y14188D01*
X14698Y14206D01*
X14713Y14228D01*
X14724Y14251D01*
X14730Y14277D01*
X14731Y14288D01*
X14732Y14289D01*
X14738Y14295D01*
X14743Y14299D01*
X14872Y14428D01*
Y13580D01*
X14869Y13580D01*
X14860Y13578D01*
X14852Y13575D01*
X14845Y13570D01*
X14838Y13565D01*
X14833Y13558D01*
X14829Y13550D01*
X14826Y13542D01*
X14821Y13518D01*
X14819Y13494D01*
X14819Y13470D01*
X14822Y13446D01*
X14827Y13422D01*
Y13422D01*
X14830Y13414D01*
X14834Y13406D01*
X14840Y13399D01*
X14846Y13394D01*
X14854Y13389D01*
X14862Y13386D01*
X14871Y13385D01*
X14872D01*
Y13157D01*
G37*
G36*
X15060Y12151D02*X15048Y12152D01*
X14555D01*
X14471Y12236D01*
X15060D01*
Y12151D01*
G37*
G36*
X14872Y17716D02*X14961D01*
X14961Y17716D01*
X14960Y17707D01*
Y17699D01*
X14961Y17690D01*
X14964Y17682D01*
X14968Y17674D01*
X14974Y17668D01*
X14981Y17662D01*
X14988Y17658D01*
X14996Y17655D01*
X15005Y17653D01*
X15014D01*
X15022Y17655D01*
X15036Y17657D01*
X15050Y17659D01*
X15060Y17659D01*
Y17380D01*
X15053Y17379D01*
X15039Y17381D01*
X15025Y17383D01*
X15016Y17385D01*
X15007Y17385D01*
X14999Y17383D01*
X14991Y17380D01*
X14983Y17375D01*
X14977Y17370D01*
X14971Y17363D01*
X14967Y17355D01*
X14964Y17347D01*
X14963Y17338D01*
X14963Y17330D01*
X14965Y17321D01*
X14968Y17313D01*
X14972Y17306D01*
X14978Y17299D01*
X14985Y17294D01*
X14992Y17289D01*
X15001Y17286D01*
X15024Y17282D01*
X15049Y17280D01*
X15060Y17280D01*
Y17077D01*
X15053Y17092D01*
X15041Y17109D01*
X15026Y17124D01*
X15009Y17136D01*
X14990Y17145D01*
X14970Y17150D01*
X14949Y17152D01*
X14872D01*
Y17420D01*
X14879D01*
X14888Y17422D01*
X14896Y17425D01*
X14904Y17429D01*
X14910Y17435D01*
X14916Y17441D01*
X14920Y17449D01*
X14923Y17457D01*
X14925Y17466D01*
Y17474D01*
X14923Y17483D01*
X14920Y17497D01*
X14919Y17511D01*
X14919Y17525D01*
X14920Y17539D01*
X14923Y17553D01*
X14924Y17562D01*
X14924Y17570D01*
X14922Y17579D01*
X14919Y17587D01*
X14915Y17595D01*
X14909Y17601D01*
X14902Y17607D01*
X14895Y17611D01*
X14886Y17614D01*
X14878Y17615D01*
X14872Y17615D01*
Y17716D01*
G37*
G36*
X11909D02*X14872D01*
Y17615D01*
X14869Y17615D01*
X14860Y17613D01*
X14852Y17610D01*
X14845Y17606D01*
X14838Y17600D01*
X14833Y17593D01*
X14829Y17586D01*
X14826Y17577D01*
X14821Y17554D01*
X14819Y17529D01*
X14819Y17505D01*
X14822Y17481D01*
X14827Y17457D01*
Y17457D01*
X14830Y17449D01*
X14834Y17442D01*
X14840Y17435D01*
X14846Y17429D01*
X14854Y17425D01*
X14862Y17422D01*
X14871Y17420D01*
X14872D01*
Y17152D01*
X14349D01*
X14328Y17150D01*
X14308Y17145D01*
X14289Y17136D01*
X14272Y17124D01*
X14257Y17109D01*
X14245Y17092D01*
X14236Y17073D01*
X14231Y17053D01*
X14229Y17032D01*
Y16432D01*
X14231Y16411D01*
X14236Y16391D01*
X14245Y16372D01*
X14257Y16355D01*
X14272Y16340D01*
X14289Y16328D01*
X14308Y16319D01*
X14328Y16313D01*
X14349Y16312D01*
X14490D01*
Y16168D01*
X14365D01*
X14344Y16166D01*
X14324Y16161D01*
X14305Y16152D01*
X14288Y16140D01*
X14273Y16125D01*
X14261Y16108D01*
X14252Y16089D01*
X14247Y16069D01*
X14245Y16048D01*
Y15448D01*
X14247Y15427D01*
X14252Y15407D01*
X14261Y15388D01*
X14273Y15370D01*
X14288Y15356D01*
X14305Y15344D01*
X14324Y15335D01*
X14344Y15329D01*
X14365Y15327D01*
X14687D01*
Y15150D01*
X14679Y15158D01*
X14658Y15173D01*
X14634Y15184D01*
X14609Y15190D01*
X14583Y15193D01*
X13713D01*
X13687Y15190D01*
X13661Y15184D01*
X13638Y15173D01*
X13616Y15158D01*
X13598Y15139D01*
X13583Y15118D01*
X13572Y15094D01*
X13565Y15069D01*
X13563Y15043D01*
Y14803D01*
X13565Y14777D01*
X13572Y14751D01*
X13583Y14728D01*
X13598Y14706D01*
X13616Y14688D01*
X13638Y14673D01*
X13638Y14673D01*
X13638Y14673D01*
X13616Y14658D01*
X13598Y14639D01*
X13583Y14618D01*
X13573Y14598D01*
X13553D01*
X13546Y14597D01*
X13537D01*
X13529Y14596D01*
X13522Y14595D01*
X13516Y14593D01*
X13507Y14592D01*
X13499Y14589D01*
X13493Y14587D01*
X13487Y14584D01*
X13479Y14581D01*
X13471Y14577D01*
X13465Y14574D01*
X13459Y14570D01*
X13452Y14566D01*
X13446Y14561D01*
X13440Y14557D01*
X13435Y14552D01*
X13429Y14546D01*
X13307Y14424D01*
X13312Y14442D01*
X13313Y14463D01*
Y15063D01*
X13312Y15084D01*
X13306Y15104D01*
X13297Y15123D01*
X13285Y15141D01*
X13271Y15155D01*
X13253Y15167D01*
X13234Y15176D01*
X13214Y15182D01*
X13193Y15184D01*
X12593D01*
X12572Y15182D01*
X12552Y15176D01*
X12533Y15167D01*
X12516Y15155D01*
X12501Y15141D01*
X12489Y15123D01*
X12480Y15104D01*
X12475Y15084D01*
X12473Y15063D01*
Y14463D01*
X12475Y14442D01*
X12480Y14422D01*
X12489Y14403D01*
X12501Y14386D01*
X12516Y14371D01*
X12533Y14359D01*
X12552Y14350D01*
X12572Y14345D01*
X12593Y14343D01*
X13193D01*
X13214Y14345D01*
X13232Y14350D01*
X13082Y14199D01*
X12609D01*
X12588Y14197D01*
X12568Y14192D01*
X12549Y14183D01*
X12532Y14171D01*
X12517Y14156D01*
X12505Y14139D01*
X12496Y14120D01*
X12491Y14100D01*
X12489Y14079D01*
Y13479D01*
X12491Y13458D01*
X12495Y13440D01*
X12329Y13606D01*
Y14079D01*
X12327Y14100D01*
X12322Y14120D01*
X12313Y14139D01*
X12301Y14156D01*
X12286Y14171D01*
X12269Y14183D01*
X12250Y14192D01*
X12230Y14197D01*
X12209Y14199D01*
X11909D01*
Y14343D01*
X12193D01*
X12214Y14345D01*
X12234Y14350D01*
X12253Y14359D01*
X12271Y14371D01*
X12285Y14386D01*
X12297Y14403D01*
X12306Y14422D01*
X12312Y14442D01*
X12313Y14463D01*
Y15063D01*
X12312Y15084D01*
X12306Y15104D01*
X12297Y15123D01*
X12285Y15141D01*
X12271Y15155D01*
X12253Y15167D01*
X12234Y15176D01*
X12214Y15182D01*
X12193Y15184D01*
X11909D01*
Y15772D01*
X11940Y15728D01*
X12051Y15617D01*
X12179Y15527D01*
X12322Y15461D01*
X12473Y15420D01*
X12629Y15407D01*
X12786Y15420D01*
X12937Y15461D01*
X13079Y15527D01*
X13208Y15617D01*
X13319Y15728D01*
X13409Y15857D01*
X13475Y15999D01*
X13516Y16150D01*
X13529Y16307D01*
X13516Y16463D01*
X13475Y16614D01*
X13409Y16757D01*
X13319Y16885D01*
X13208Y16996D01*
X13079Y17086D01*
X12937Y17152D01*
X12786Y17193D01*
X12629Y17207D01*
X12473Y17193D01*
X12322Y17152D01*
X12179Y17086D01*
X12051Y16996D01*
X11940Y16885D01*
X11909Y16841D01*
Y17716D01*
G37*
G36*
Y14199D02*X11609D01*
X11588Y14197D01*
X11568Y14192D01*
X11549Y14183D01*
X11532Y14171D01*
X11517Y14156D01*
X11505Y14139D01*
X11496Y14120D01*
X11493Y14110D01*
Y14397D01*
X11501Y14386D01*
X11516Y14371D01*
X11533Y14359D01*
X11552Y14350D01*
X11572Y14345D01*
X11593Y14343D01*
X11909D01*
Y14199D01*
G37*
G36*
X10718Y12365D02*X11121D01*
X11147Y12368D01*
X11172Y12374D01*
X11196Y12385D01*
X11217Y12400D01*
X11236Y12419D01*
X11251Y12440D01*
X11262Y12464D01*
X11269Y12489D01*
X11271Y12515D01*
Y12605D01*
X11297Y12587D01*
X11335Y12569D01*
X11375Y12558D01*
X11417Y12555D01*
X11433Y12556D01*
Y12495D01*
X11435Y12467D01*
X11443Y12440D01*
X11455Y12415D01*
X11471Y12392D01*
X11490Y12372D01*
X11513Y12356D01*
X11538Y12344D01*
X11565Y12337D01*
X11593Y12335D01*
X11909D01*
Y12231D01*
X11609D01*
X11588Y12229D01*
X11568Y12224D01*
X11549Y12215D01*
X11532Y12203D01*
X11517Y12188D01*
X11505Y12171D01*
X11496Y12152D01*
X11491Y12132D01*
X11489Y12111D01*
Y11511D01*
X11491Y11490D01*
X11496Y11470D01*
X11505Y11451D01*
X11517Y11433D01*
X11532Y11419D01*
X11549Y11407D01*
X11568Y11398D01*
X11588Y11392D01*
X11609Y11390D01*
X11909D01*
Y11347D01*
X10718D01*
Y11715D01*
X10721Y11715D01*
X10729Y11717D01*
X10737Y11720D01*
X10745Y11724D01*
X10751Y11730D01*
X10757Y11737D01*
X10761Y11744D01*
X10764Y11753D01*
X10769Y11776D01*
X10771Y11801D01*
X10771Y11825D01*
X10768Y11849D01*
X10763Y11873D01*
Y11873D01*
X10760Y11881D01*
X10756Y11888D01*
X10750Y11895D01*
X10743Y11901D01*
X10736Y11905D01*
X10728Y11908D01*
X10719Y11910D01*
X10718D01*
Y12365D01*
G37*
G36*
X10533D02*X10718D01*
Y11910D01*
X10710D01*
X10702Y11908D01*
X10693Y11905D01*
X10686Y11901D01*
X10679Y11895D01*
X10674Y11889D01*
X10669Y11881D01*
X10666Y11873D01*
X10665Y11864D01*
Y11856D01*
X10666Y11847D01*
X10669Y11833D01*
X10671Y11819D01*
X10671Y11805D01*
X10670Y11791D01*
X10667Y11777D01*
X10665Y11768D01*
X10666Y11760D01*
X10667Y11751D01*
X10670Y11743D01*
X10675Y11735D01*
X10681Y11729D01*
X10687Y11723D01*
X10695Y11719D01*
X10703Y11716D01*
X10712Y11715D01*
X10718Y11715D01*
Y11347D01*
X10629D01*
X10619Y11346D01*
X10610D01*
X10601Y11344D01*
X10590Y11343D01*
X10580Y11341D01*
X10571Y11339D01*
X10562Y11336D01*
X10552Y11333D01*
X10543Y11329D01*
X10534Y11326D01*
X10533Y11325D01*
Y11571D01*
X10545Y11571D01*
X10569Y11574D01*
X10593Y11579D01*
X10593D01*
X10601Y11582D01*
X10609Y11586D01*
X10615Y11592D01*
X10621Y11598D01*
X10625Y11606D01*
X10628Y11614D01*
X10630Y11623D01*
Y11631D01*
X10628Y11640D01*
X10625Y11648D01*
X10621Y11656D01*
X10616Y11662D01*
X10609Y11668D01*
X10601Y11672D01*
X10593Y11675D01*
X10585Y11677D01*
X10576D01*
X10567Y11675D01*
X10553Y11673D01*
X10539Y11671D01*
X10533D01*
Y11951D01*
X10537D01*
X10551Y11949D01*
X10565Y11947D01*
X10573Y11945D01*
X10582Y11945D01*
X10591Y11947D01*
X10599Y11950D01*
X10606Y11955D01*
X10613Y11960D01*
X10618Y11967D01*
X10623Y11975D01*
X10625Y11983D01*
X10627Y11992D01*
X10627Y12000D01*
X10625Y12009D01*
X10622Y12017D01*
X10617Y12024D01*
X10612Y12031D01*
X10605Y12036D01*
X10597Y12041D01*
X10589Y12044D01*
X10565Y12048D01*
X10541Y12050D01*
X10533Y12050D01*
Y12365D01*
G37*
G36*
Y17716D02*X11909D01*
Y16841D01*
X11850Y16757D01*
X11784Y16614D01*
X11743Y16463D01*
X11729Y16307D01*
X11743Y16150D01*
X11784Y15999D01*
X11850Y15857D01*
X11909Y15772D01*
Y15184D01*
X11593D01*
X11572Y15182D01*
X11552Y15176D01*
X11533Y15167D01*
X11516Y15155D01*
X11501Y15141D01*
X11489Y15123D01*
X11480Y15104D01*
X11475Y15084D01*
X11473Y15063D01*
Y14947D01*
X11473Y14947D01*
X11438Y14971D01*
X11401Y14989D01*
X11360Y15000D01*
X11318Y15003D01*
X11277Y15000D01*
X11236Y14989D01*
X11198Y14971D01*
X11164Y14947D01*
X11135Y14918D01*
X11111Y14883D01*
X11093Y14845D01*
X11082Y14805D01*
X11078Y14763D01*
X11082Y14722D01*
X11093Y14681D01*
X11111Y14643D01*
X11135Y14609D01*
X11143Y14600D01*
Y14403D01*
X11121Y14405D01*
X10533D01*
Y14540D01*
X10650D01*
X10671Y14542D01*
X10691Y14547D01*
X10710Y14556D01*
X10727Y14568D01*
X10742Y14583D01*
X10754Y14600D01*
X10763Y14619D01*
X10768Y14639D01*
X10770Y14660D01*
Y15260D01*
X10768Y15281D01*
X10763Y15301D01*
X10754Y15320D01*
X10742Y15338D01*
X10727Y15352D01*
X10710Y15364D01*
X10691Y15373D01*
X10671Y15379D01*
X10650Y15380D01*
X10533D01*
Y15524D01*
X10634D01*
X10655Y15526D01*
X10675Y15531D01*
X10694Y15540D01*
X10711Y15552D01*
X10726Y15567D01*
X10738Y15584D01*
X10747Y15603D01*
X10753Y15624D01*
X10754Y15644D01*
Y16244D01*
X10753Y16265D01*
X10747Y16286D01*
X10738Y16305D01*
X10726Y16322D01*
X10711Y16337D01*
X10694Y16349D01*
X10675Y16357D01*
X10655Y16363D01*
X10634Y16365D01*
X10533D01*
Y17716D01*
G37*
G36*
Y15380D02*X10525D01*
Y15524D01*
X10533D01*
Y15380D01*
G37*
G36*
Y14405D02*X10251D01*
X10225Y14403D01*
X10200Y14396D01*
X10176Y14385D01*
X10154Y14370D01*
X10136Y14352D01*
X10121Y14330D01*
X10115Y14319D01*
Y14478D01*
X10177Y14540D01*
X10533D01*
Y14405D01*
G37*
G36*
X10344Y12365D02*X10533D01*
Y12050D01*
X10517Y12050D01*
X10493Y12048D01*
X10469Y12043D01*
X10469D01*
X10461Y12040D01*
X10453Y12035D01*
X10447Y12030D01*
X10441Y12023D01*
X10437Y12015D01*
X10434Y12007D01*
X10432Y11999D01*
Y11990D01*
X10434Y11981D01*
X10437Y11973D01*
X10441Y11966D01*
X10446Y11959D01*
X10453Y11953D01*
X10461Y11949D01*
X10469Y11946D01*
X10477Y11944D01*
X10486D01*
X10495Y11946D01*
X10509Y11949D01*
X10523Y11950D01*
X10533Y11951D01*
Y11671D01*
X10525Y11671D01*
X10511Y11672D01*
X10497Y11675D01*
X10489Y11676D01*
X10480Y11676D01*
X10471Y11674D01*
X10463Y11671D01*
X10456Y11667D01*
X10449Y11661D01*
X10444Y11654D01*
X10439Y11647D01*
X10437Y11638D01*
X10435Y11630D01*
X10435Y11621D01*
X10437Y11613D01*
X10440Y11604D01*
X10445Y11597D01*
X10450Y11590D01*
X10457Y11585D01*
X10465Y11581D01*
X10473Y11578D01*
X10497Y11573D01*
X10521Y11571D01*
X10533Y11571D01*
Y11325D01*
X10526Y11321D01*
X10517Y11317D01*
X10509Y11311D01*
X10500Y11306D01*
X10493Y11300D01*
X10485Y11294D01*
X10478Y11287D01*
X10470Y11281D01*
X10372Y11182D01*
X10372Y11182D01*
X10367Y11176D01*
X10359Y11168D01*
X10352Y11159D01*
X10347Y11152D01*
X10344Y11148D01*
Y11712D01*
X10352D01*
X10360Y11713D01*
X10369Y11716D01*
X10376Y11721D01*
X10383Y11726D01*
X10388Y11733D01*
X10393Y11740D01*
X10396Y11749D01*
X10397Y11757D01*
Y11766D01*
X10396Y11774D01*
X10393Y11788D01*
X10391Y11802D01*
X10391Y11817D01*
X10392Y11831D01*
X10395Y11845D01*
X10397Y11853D01*
X10396Y11862D01*
X10395Y11870D01*
X10392Y11879D01*
X10387Y11886D01*
X10381Y11893D01*
X10375Y11898D01*
X10367Y11902D01*
X10359Y11905D01*
X10350Y11907D01*
X10344Y11906D01*
Y12365D01*
G37*
G36*
Y17716D02*X10533D01*
Y16365D01*
X10344D01*
Y17716D01*
G37*
G36*
X9733Y14574D02*X9742Y14583D01*
X9754Y14600D01*
X9763Y14619D01*
X9768Y14639D01*
X9770Y14660D01*
Y15260D01*
X9768Y15281D01*
X9763Y15301D01*
X9754Y15320D01*
X9742Y15338D01*
X9733Y15346D01*
Y15577D01*
X9738Y15584D01*
X9747Y15603D01*
X9753Y15624D01*
X9754Y15644D01*
Y16244D01*
X9753Y16265D01*
X9747Y16286D01*
X9738Y16305D01*
X9733Y16311D01*
Y17716D01*
X10344D01*
Y16365D01*
X10034D01*
X10013Y16363D01*
X9993Y16357D01*
X9974Y16349D01*
X9957Y16337D01*
X9942Y16322D01*
X9930Y16305D01*
X9921Y16286D01*
X9916Y16265D01*
X9914Y16244D01*
Y15644D01*
X9916Y15624D01*
X9921Y15603D01*
X9930Y15584D01*
X9942Y15567D01*
X9957Y15552D01*
X9974Y15540D01*
X9993Y15531D01*
X10013Y15526D01*
X10034Y15524D01*
X10175D01*
Y15380D01*
X10050D01*
X10029Y15379D01*
X10009Y15373D01*
X9990Y15364D01*
X9973Y15352D01*
X9958Y15338D01*
X9946Y15320D01*
X9937Y15301D01*
X9932Y15281D01*
X9930Y15260D01*
Y14788D01*
X9817Y14675D01*
X9817Y14674D01*
X9813Y14670D01*
X9806Y14663D01*
X9801Y14656D01*
X9797Y14651D01*
X9794Y14646D01*
X9789Y14638D01*
X9785Y14630D01*
X9782Y14625D01*
X9780Y14619D01*
X9776Y14611D01*
X9774Y14603D01*
X9771Y14596D01*
X9770Y14589D01*
X9768Y14581D01*
X9767Y14573D01*
X9766Y14566D01*
Y14559D01*
X9765Y14551D01*
Y13385D01*
X9766Y13378D01*
Y13370D01*
X9767Y13363D01*
X9768Y13355D01*
X9770Y13348D01*
X9771Y13340D01*
X9774Y13332D01*
X9776Y13326D01*
X9779Y13318D01*
X9782Y13312D01*
X9785Y13305D01*
X9789Y13298D01*
X9794Y13291D01*
X9797Y13285D01*
X9802Y13280D01*
X9806Y13273D01*
X9812Y13267D01*
X9817Y13262D01*
X10067Y13012D01*
X10072Y13007D01*
X10078Y13001D01*
X10085Y12997D01*
X10090Y12992D01*
X10096Y12988D01*
X10103Y12984D01*
X10105Y12983D01*
X10110Y12964D01*
X10121Y12940D01*
X10136Y12919D01*
X10154Y12900D01*
X10176Y12885D01*
X10176Y12885D01*
X10176Y12885D01*
X10154Y12870D01*
X10136Y12852D01*
X10121Y12830D01*
X10110Y12807D01*
X10103Y12781D01*
X10101Y12755D01*
Y12515D01*
X10103Y12489D01*
X10110Y12464D01*
X10121Y12440D01*
X10136Y12419D01*
X10154Y12400D01*
X10176Y12385D01*
X10200Y12374D01*
X10225Y12368D01*
X10251Y12365D01*
X10344D01*
Y11906D01*
X10341Y11906D01*
X10333Y11905D01*
X10325Y11902D01*
X10317Y11897D01*
X10311Y11891D01*
X10305Y11885D01*
X10301Y11877D01*
X10298Y11869D01*
X10293Y11845D01*
X10291Y11821D01*
X10291Y11796D01*
X10294Y11772D01*
X10299Y11749D01*
Y11749D01*
X10302Y11740D01*
X10306Y11733D01*
X10312Y11726D01*
X10319Y11721D01*
X10326Y11716D01*
X10334Y11713D01*
X10343Y11712D01*
X10344D01*
Y11148D01*
X10343Y11145D01*
X10336Y11136D01*
X10331Y11125D01*
X10327Y11118D01*
X10324Y11111D01*
X10320Y11100D01*
X10317Y11089D01*
X10314Y11081D01*
X10312Y11073D01*
X10309Y11062D01*
X10308Y11051D01*
X10307Y11043D01*
Y11035D01*
X10306Y11023D01*
Y10630D01*
X10166D01*
Y10644D01*
X10165Y10655D01*
Y10664D01*
X10164Y10672D01*
Y11142D01*
X10162Y11163D01*
X10157Y11183D01*
X10148Y11202D01*
X10136Y11219D01*
X10121Y11234D01*
X10104Y11246D01*
X10085Y11255D01*
X10065Y11260D01*
X10044Y11262D01*
X9733D01*
Y11370D01*
X10044D01*
X10068Y11373D01*
X10092Y11379D01*
X10114Y11389D01*
X10134Y11403D01*
X10151Y11421D01*
X10165Y11441D01*
X10175Y11463D01*
X10182Y11486D01*
X10184Y11511D01*
Y12111D01*
X10182Y12135D01*
X10175Y12159D01*
X10165Y12181D01*
X10151Y12201D01*
X10134Y12218D01*
X10114Y12232D01*
X10092Y12242D01*
X10068Y12249D01*
X10044Y12251D01*
X9733D01*
Y12798D01*
X9736Y12798D01*
X9745Y12799D01*
X9753Y12802D01*
X9760Y12807D01*
X9767Y12813D01*
X9772Y12819D01*
X9777Y12827D01*
X9780Y12835D01*
X9784Y12859D01*
X9786Y12883D01*
X9786Y12908D01*
X9784Y12932D01*
X9779Y12955D01*
Y12955D01*
X9776Y12964D01*
X9771Y12971D01*
X9766Y12978D01*
X9759Y12983D01*
X9751Y12988D01*
X9743Y12991D01*
X9735Y12992D01*
X9733D01*
Y14574D01*
G37*
G36*
Y11262D02*X9642D01*
X9548Y11356D01*
Y11370D01*
X9733D01*
Y11262D01*
G37*
G36*
Y16311D02*X9726Y16322D01*
X9711Y16337D01*
X9694Y16349D01*
X9675Y16357D01*
X9655Y16363D01*
X9634Y16365D01*
X9548D01*
Y17716D01*
X9733D01*
Y16311D01*
G37*
G36*
Y15346D02*X9727Y15352D01*
X9710Y15364D01*
X9691Y15373D01*
X9671Y15379D01*
X9650Y15380D01*
X9548D01*
Y15524D01*
X9634D01*
X9655Y15526D01*
X9675Y15531D01*
X9694Y15540D01*
X9711Y15552D01*
X9726Y15567D01*
X9733Y15577D01*
Y15346D01*
G37*
G36*
X9548Y14540D02*X9650D01*
X9671Y14542D01*
X9691Y14547D01*
X9710Y14556D01*
X9727Y14568D01*
X9733Y14574D01*
Y12992D01*
X9726D01*
X9717Y12991D01*
X9709Y12988D01*
X9702Y12983D01*
X9695Y12978D01*
X9689Y12971D01*
X9685Y12964D01*
X9682Y12955D01*
X9680Y12947D01*
Y12938D01*
X9682Y12930D01*
X9685Y12916D01*
X9686Y12902D01*
X9687Y12887D01*
X9685Y12873D01*
X9683Y12859D01*
X9681Y12851D01*
X9681Y12842D01*
X9683Y12834D01*
X9686Y12825D01*
X9691Y12818D01*
X9696Y12811D01*
X9703Y12806D01*
X9711Y12802D01*
X9719Y12799D01*
X9728Y12797D01*
X9733Y12798D01*
Y12251D01*
X9548D01*
Y12654D01*
X9561Y12654D01*
X9585Y12656D01*
X9609Y12661D01*
X9609D01*
X9617Y12664D01*
X9624Y12669D01*
X9631Y12674D01*
X9637Y12681D01*
X9641Y12689D01*
X9644Y12697D01*
X9646Y12705D01*
Y12714D01*
X9644Y12723D01*
X9641Y12731D01*
X9637Y12738D01*
X9631Y12745D01*
X9625Y12751D01*
X9617Y12755D01*
X9609Y12758D01*
X9600Y12760D01*
X9592D01*
X9583Y12758D01*
X9569Y12755D01*
X9555Y12754D01*
X9548D01*
Y13033D01*
X9553D01*
X9567Y13032D01*
X9581Y13029D01*
X9589Y13028D01*
X9598Y13028D01*
X9606Y13030D01*
X9615Y13033D01*
X9622Y13037D01*
X9629Y13043D01*
X9634Y13050D01*
X9638Y13057D01*
X9641Y13066D01*
X9643Y13074D01*
X9642Y13083D01*
X9641Y13091D01*
X9638Y13100D01*
X9633Y13107D01*
X9627Y13114D01*
X9621Y13119D01*
X9613Y13123D01*
X9605Y13126D01*
X9581Y13131D01*
X9557Y13133D01*
X9548Y13133D01*
Y14540D01*
G37*
G36*
Y11356D02*X9533Y11370D01*
X9548D01*
Y11356D01*
G37*
G36*
Y16365D02*X9034D01*
X9013Y16363D01*
X8993Y16357D01*
X8974Y16349D01*
X8957Y16337D01*
X8942Y16322D01*
X8930Y16305D01*
X8921Y16286D01*
X8916Y16265D01*
X8914Y16244D01*
Y15644D01*
X8916Y15624D01*
X8921Y15603D01*
X8930Y15584D01*
X8942Y15567D01*
X8957Y15552D01*
X8974Y15540D01*
X8993Y15531D01*
X9013Y15526D01*
X9034Y15524D01*
X9175D01*
Y15380D01*
X9050D01*
X9029Y15379D01*
X9009Y15373D01*
X8990Y15364D01*
X8973Y15352D01*
X8958Y15338D01*
X8946Y15320D01*
X8937Y15301D01*
X8932Y15281D01*
X8930Y15260D01*
Y14660D01*
X8932Y14639D01*
X8937Y14619D01*
X8946Y14600D01*
X8958Y14583D01*
X8973Y14568D01*
X8990Y14556D01*
X9009Y14547D01*
X9029Y14542D01*
X9050Y14540D01*
X9075D01*
Y14425D01*
X9071Y14425D01*
X8201D01*
X8171Y14423D01*
X8143Y14415D01*
X8116Y14403D01*
X8092Y14386D01*
X8071Y14365D01*
X8054Y14340D01*
X8041Y14313D01*
X8033Y14285D01*
X8031Y14255D01*
Y14015D01*
X8033Y13986D01*
X8041Y13957D01*
X8043Y13954D01*
X7874D01*
Y17716D01*
X9548D01*
Y16365D01*
G37*
G36*
Y15380D02*X9525D01*
Y15524D01*
X9548D01*
Y15380D01*
G37*
G36*
X9360Y13609D02*X9373Y13622D01*
X9373Y13622D01*
X9379Y13628D01*
X9384Y13633D01*
X9388Y13639D01*
X9393Y13645D01*
X9397Y13652D01*
X9401Y13658D01*
X9404Y13664D01*
X9408Y13672D01*
X9411Y13680D01*
X9414Y13686D01*
X9416Y13692D01*
X9419Y13700D01*
X9420Y13709D01*
X9422Y13715D01*
X9422Y13722D01*
X9424Y13730D01*
Y13739D01*
X9425Y13746D01*
Y14540D01*
X9548D01*
Y13133D01*
X9532Y13133D01*
X9508Y13130D01*
X9485Y13125D01*
X9485D01*
X9476Y13122D01*
X9469Y13118D01*
X9462Y13112D01*
X9457Y13106D01*
X9452Y13098D01*
X9449Y13090D01*
X9448Y13081D01*
Y13073D01*
X9449Y13064D01*
X9452Y13056D01*
X9457Y13048D01*
X9462Y13042D01*
X9469Y13036D01*
X9476Y13032D01*
X9485Y13029D01*
X9493Y13027D01*
X9502D01*
X9510Y13029D01*
X9524Y13031D01*
X9538Y13033D01*
X9548Y13033D01*
Y12754D01*
X9541Y12753D01*
X9527Y12755D01*
X9513Y12757D01*
X9504Y12759D01*
X9496Y12759D01*
X9487Y12757D01*
X9479Y12754D01*
X9471Y12749D01*
X9465Y12744D01*
X9459Y12737D01*
X9455Y12729D01*
X9452Y12721D01*
X9451Y12712D01*
X9451Y12704D01*
X9453Y12695D01*
X9456Y12687D01*
X9460Y12680D01*
X9466Y12673D01*
X9473Y12668D01*
X9480Y12663D01*
X9489Y12660D01*
X9512Y12656D01*
X9537Y12654D01*
X9548Y12654D01*
Y12251D01*
X9444D01*
X9419Y12249D01*
X9396Y12242D01*
X9374Y12232D01*
X9360Y12223D01*
Y12794D01*
X9367D01*
X9376Y12796D01*
X9384Y12799D01*
X9392Y12803D01*
X9398Y12809D01*
X9404Y12815D01*
X9408Y12823D01*
X9411Y12831D01*
X9413Y12840D01*
Y12848D01*
X9411Y12857D01*
X9409Y12871D01*
X9407Y12885D01*
X9407Y12899D01*
X9408Y12913D01*
X9411Y12927D01*
X9412Y12936D01*
X9412Y12944D01*
X9410Y12953D01*
X9407Y12961D01*
X9403Y12969D01*
X9397Y12975D01*
X9390Y12981D01*
X9383Y12985D01*
X9374Y12988D01*
X9366Y12989D01*
X9360Y12989D01*
Y13609D01*
G37*
G36*
X9180Y12885D02*X9201Y12906D01*
X9218Y12930D01*
X9231Y12957D01*
X9238Y12986D01*
X9241Y13015D01*
Y13255D01*
X9238Y13285D01*
X9231Y13313D01*
X9218Y13340D01*
X9201Y13365D01*
X9180Y13385D01*
X9201Y13406D01*
X9218Y13430D01*
X9231Y13457D01*
X9238Y13486D01*
X9239Y13492D01*
X9240Y13492D01*
X9244Y13496D01*
X9252Y13501D01*
X9258Y13508D01*
X9263Y13512D01*
X9360Y13609D01*
Y12989D01*
X9357Y12989D01*
X9349Y12987D01*
X9340Y12984D01*
X9333Y12980D01*
X9326Y12974D01*
X9321Y12967D01*
X9317Y12960D01*
X9314Y12951D01*
X9309Y12928D01*
X9307Y12903D01*
X9307Y12879D01*
X9310Y12855D01*
X9315Y12831D01*
Y12831D01*
X9318Y12823D01*
X9322Y12816D01*
X9328Y12809D01*
X9334Y12803D01*
X9342Y12799D01*
X9350Y12796D01*
X9359Y12794D01*
X9360D01*
Y12223D01*
X9354Y12218D01*
X9336Y12201D01*
X9322Y12181D01*
X9312Y12159D01*
X9306Y12135D01*
X9303Y12111D01*
Y11600D01*
X9184Y11720D01*
Y12111D01*
X9182Y12135D01*
X9175Y12159D01*
X9165Y12181D01*
X9151Y12201D01*
X9134Y12218D01*
X9114Y12232D01*
X9092Y12242D01*
X9068Y12249D01*
X9044Y12251D01*
X8811D01*
Y12345D01*
X9071D01*
X9100Y12348D01*
X9129Y12356D01*
X9156Y12368D01*
X9180Y12385D01*
X9201Y12406D01*
X9218Y12430D01*
X9231Y12457D01*
X9238Y12486D01*
X9241Y12515D01*
Y12755D01*
X9238Y12785D01*
X9231Y12813D01*
X9218Y12840D01*
X9201Y12865D01*
X9180Y12885D01*
G37*
G54D14*X15748Y11712D02*X15846Y11810D01*
X14763Y12696D02*X15748Y11712D01*
Y11712D01*
X14586Y9087D02*X15682D01*
X11926Y9071D02*X11942Y10072D01*
X13586D01*
X14570Y9087D01*
X15846Y11810D02*X17818D01*
X17815Y11813D01*
Y12795D01*
Y12303D02*X17322D01*
G54D13*X10925Y10039D02*X11909D01*
X15748Y9153D02*X16338D01*
Y9547D02*X16338Y9547D01*
X17027D01*
X16929Y6397D02*X17027D01*
X16338Y6988D02*X16929Y6397D01*
X16338Y7578D02*X16338Y7578D01*
X17027D01*
X16338Y7480D02*Y6988D01*
G54D14*X18307Y10236D02*X18799Y9744D01*
X19783D01*
G54D13*X16338Y10039D02*Y7578D01*
X15682Y9087D02*X15748Y9153D01*
G54D14*X9744Y11811D02*X11909D01*
X9744D02*X9645Y11909D01*
Y12795D01*
X9305Y13135D01*
X8636D01*
X7657Y12499D02*X8294Y13135D01*
X7657Y12499D02*X7086D01*
G54D13*X11629Y18307D02*X12629Y17307D01*
Y16307D01*
X12893Y16043D01*
Y14763D01*
X13842Y17519D02*X12629Y16307D01*
G54D14*X17322Y10236D02*X18307D01*
G54D13*X16338Y10039D02*X16535Y10236D01*
X17322D01*
X14763Y12696D02*X15059Y12992D01*
Y13484D01*
G54D14*X19126Y16307D02*X20078Y15354D01*
G54D12*X17322Y15944D02*X17685Y16307D01*
X19126D01*
G54D13*X18126Y18307D02*X18110Y18291D01*
Y16338D01*
X13842Y17519D02*X18110D01*
G54D14*X20078Y15354D02*X20767D01*
X5807Y7315D02*X6496Y8004D01*
Y8496D01*
Y9496D02*Y9972D01*
X7185Y10661D01*
G54D13*X5807D02*X6563Y11417D01*
X7874D01*
X7185Y7315D02*X7956Y8086D01*
G54D14*X6102Y12499D02*X6101Y12499D01*
X5532D01*
X6299Y13779D02*X5532Y13012D01*
Y12499D01*
X8177Y13779D02*X6299D01*
X8636Y11918D02*Y12635D01*
X9940Y13385D02*X10191Y13135D01*
X9350Y14960D02*X9250Y14860D01*
Y13746D01*
X9139Y13635D01*
G54D13*X8629Y20307D02*X10629Y18307D01*
G54D14*X9139Y13635D02*X8636D01*
X8321D02*X8177Y13779D01*
X8294Y13135D02*X8636D01*
X9940Y14551D02*Y13385D01*
X10925Y5118D02*X10909Y5134D01*
X11925Y5118D02*X10925Y6118D01*
G54D12*X10909Y5134D02*X9744D01*
X9252Y5626D01*
Y7086D01*
G54D13*X8366Y6102D02*X8366Y6102D01*
Y5134D01*
G54D14*X8744Y11811D02*X8636Y11918D01*
G54D13*X9941Y10644D02*X8775Y11811D01*
X8744D01*
X9252Y10334D02*X8744Y10842D01*
X7874Y11417D02*X8448Y10842D01*
X8744D01*
G54D14*X10334Y15944D02*X10350Y15929D01*
Y14960D01*
X9334Y15944D02*X9350Y15929D01*
Y14960D01*
X11893Y14763D02*X11318D01*
Y13779D01*
X11175Y13635D01*
X10686D01*
X10350Y14960D02*X9940Y14551D01*
X11893Y12795D02*X11417D01*
X11076Y13135D01*
X10191D01*
X10926Y9054D02*Y9071D01*
X11909Y8070D02*X10926Y9054D01*
X11417Y7563D02*X10909Y8070D01*
G54D13*X10926Y9071D02*X10910Y9055D01*
X7956Y8086D02*X9941D01*
G54D14*X9252D02*X9236Y8070D01*
G54D13*X10910Y9055D02*X9940D01*
X9941Y8086D02*Y10644D01*
X9252Y9086D02*Y10334D01*
X9940Y10236D02*X10334D01*
X10531Y10433D01*
Y11023D01*
X10629Y11122D01*
G54D14*X19192Y11811D02*X20038Y12656D01*
Y13029D01*
G54D13*X19586Y11122D02*Y12204D01*
G54D14*X18815Y12795D02*X19549Y13529D01*
X20038D01*
X19065Y14029D02*X20419D01*
X18815Y13779D02*X19065Y14029D01*
X19405Y18125D02*Y19488D01*
X19389Y18110D02*X19405Y18125D01*
X20669Y13779D02*X20419Y14029D01*
X20555Y12189D02*Y11220D01*
Y12189D02*X20669Y12303D01*
Y13779D01*
X18818Y11810D02*X18818Y11811D01*
X19192D01*
X12893Y12795D02*X11909Y13779D01*
X12909D02*X13553Y14423D01*
X12909Y11811D02*X13484Y12385D01*
Y13681D01*
X13726Y13923D01*
X14665Y15748D02*X14862Y15551D01*
X14649Y16732D02*X14665Y16716D01*
Y15748D01*
X14862Y15551D02*Y14665D01*
X13553Y14423D02*X14619D01*
X13726Y13923D02*X14148D01*
X15665Y15748D02*X15551Y15633D01*
Y14074D01*
X15649Y16732D02*X15665Y16716D01*
Y15748D01*
X14862Y14665D02*X14619Y14423D01*
X15551Y14074D02*X15702Y13923D01*
X17799Y14763D02*X16958Y13923D01*
X16929Y14468D02*X16883Y14423D01*
X16958Y13923D02*X15702D01*
X16883Y14423D02*X16198D01*
X16830Y12696D02*X15763D01*
X14763Y11696D02*Y11122D01*
Y11696D02*X14148Y12312D01*
Y13423D01*
G54D13*X16425Y19487D02*X16437Y19476D01*
Y18897D01*
X17027Y18307D01*
X17126D01*
X15126Y20307D02*X15956Y19476D01*
X16437D01*
X17716Y20630D02*X17874Y20472D01*
G54D14*X16692Y20866D02*X16437D01*
X16929Y20630D02*X16692Y20866D01*
G54D13*X17874Y20472D02*X18307D01*
X17425Y19487D02*X17716Y19778D01*
Y20472D01*
X18405Y19488D02*X19094Y20177D01*
Y20472D01*
G54D14*X17815Y13779D02*X18799Y14763D01*
X21600Y13529D02*X22088D01*
X21456Y13484D02*X21600Y13529D01*
X21358Y14271D02*X21600Y14029D01*
X22088D01*
X21570Y12204D02*X21555Y12189D01*
Y11220D01*
X21570Y12204D02*X21456Y12319D01*
Y13484D01*
X21767Y15354D02*X21358Y14945D01*
Y14271D01*
X10925Y6118D02*X10909D01*
X10909Y7086D02*X10909Y7086D01*
Y6118D01*
X11909D02*X11417Y6610D01*
G54D13*X13345Y6438D02*Y6746D01*
G54D14*X13586Y9087D02*X13976Y8697D01*
Y7775D01*
X13030Y7746D02*X13059Y7775D01*
X14173D01*
X13037Y7246D02*X13345D01*
X11417Y6610D02*Y7563D01*
X11909Y6118D02*X13037Y7246D01*
X11909Y7086D02*Y8070D01*
G54D13*X13385Y6397D02*X13345Y6438D01*
X12401Y5511D02*X14370D01*
X11925Y5118D02*X12401Y5511D01*
X16338Y6397D02*X13385D01*
G54D14*X16338Y5511D02*X17141D01*
X18163Y6533D02*X17141Y5511D01*
X14173Y7775D02*X14702Y7246D01*
X15395D01*
X14566Y7972D02*X14793Y7746D01*
X15395D01*
G54D13*X12893Y4921D02*X19685D01*
X19783Y5019D01*
X11614Y4527D02*X18503D01*
X12598Y5118D02*X12893Y4921D01*
G54D14*X18027Y7578D02*X18072Y7533D01*
X17519Y7185D02*X17671Y7033D01*
X18072Y7533D02*X19250D01*
G54D13*X19783Y5019D02*Y6200D01*
X20570Y6988D01*
Y7086D01*
G54D14*X20783Y8759D02*X20570Y8547D01*
Y7086D01*
X20722Y7033D01*
X21948Y8578D02*Y7677D01*
X21805Y7533D01*
X21300D01*
X20722Y7033D02*X21300D01*
X19783Y8759D02*X19980Y8563D01*
G54D13*X18799Y10334D02*X22047D01*
G54D14*X21948Y8578D02*X20767Y9759D01*
Y10334D01*
X19980Y8563D02*Y7677D01*
X19836Y7533D01*
X18163Y6533D02*X19250D01*
X17671Y7033D02*X19250D01*
X17519Y8070D02*Y7185D01*
X18700Y8563D02*X18027D01*
X19836Y7533D02*X18958D01*
X18011Y9547D02*X18027D01*
X17027Y8563D02*X18011Y9547D01*
G54D13*X14586Y10072D02*X14566Y10091D01*
G54D14*X17027Y8563D02*X17519Y8070D01*
G54D13*X14566Y10091D02*Y10728D01*
X18405D02*X18799Y10334D01*
X18405Y10728D02*X10925D01*
X10629Y11122D02*X19586D01*
G54D32*X8476Y18873D02*Y17989D01*
X8808Y18873D02*X8918Y18762D01*
Y18099D01*
X8808Y17989D02*X8918Y18099D01*
X8366Y17989D02*X8808D01*
X8366Y18873D02*X8808D01*
X9294Y17989D02*X9626D01*
X9184Y18099D02*X9294Y17989D01*
X9184Y18762D02*Y18099D01*
Y18762D02*X9294Y18873D01*
X9626D01*
X14763Y18762D02*Y17989D01*
Y18762D02*X14874Y18873D01*
X15205D01*
X15316Y18762D01*
Y17989D01*
X14763Y18431D02*X15316D01*
X15692Y17989D02*X16023D01*
X15581Y18099D02*X15692Y17989D01*
X15581Y18762D02*Y18099D01*
Y18762D02*X15692Y18873D01*
X16023D01*
G54D33*X9698Y21042D02*Y20554D01*
X9637Y21042D02*X9881D01*
X9942Y20981D01*
Y20859D01*
X9881Y20798D02*X9942Y20859D01*
X9698Y20798D02*X9881D01*
X10149Y21042D02*Y20554D01*
X10332Y21042D02*X10393Y20981D01*
Y20615D01*
X10332Y20554D02*X10393Y20615D01*
X10088Y20554D02*X10332D01*
X10088Y21042D02*X10332D01*
X10540Y20798D02*X10784D01*
X10930Y20981D02*Y20554D01*
Y20981D02*X10991Y21042D01*
X11174D01*
X11235Y20981D01*
Y20554D01*
X10930Y20798D02*X11235D01*
X11443Y20554D02*X11626D01*
X11382Y20615D02*X11443Y20554D01*
X11382Y20981D02*Y20615D01*
Y20981D02*X11443Y21042D01*
X11626D01*
X11992Y20798D02*Y20676D01*
X12114Y20554D01*
X12236Y20676D01*
Y20798D02*Y20676D01*
X12382Y20554D02*X12443D01*
X12590Y20981D02*X12651Y21042D01*
X12834D01*
X12895Y20981D01*
Y20859D01*
X12590Y20554D02*X12895Y20859D01*
X12590Y20554D02*X12895D01*
X9637Y20077D02*X9787D01*
X9637Y19877D02*X9837D01*
X9637Y20277D02*Y19877D01*
Y20277D02*X9837D01*
X9957D02*Y19927D01*
X10007Y19877D01*
X10157D02*X10307D01*
X10107Y19927D02*X10157Y19877D01*
X10107Y20027D02*Y19927D01*
Y20027D02*X10157Y20077D01*
X10257D01*
X10307Y20027D01*
X10107Y19977D02*X10307D01*
Y20027D02*Y19977D01*
X10427Y20277D02*Y19877D01*
Y20027D02*X10577Y19877D01*
X10427Y20027D02*X10527Y20127D01*
X10747Y20277D02*Y19927D01*
X10797Y19877D01*
X10697Y20127D02*X10797D01*
X10947Y20027D02*Y19877D01*
Y20027D02*X10997Y20077D01*
X11097D01*
X10897D02*X10947Y20027D01*
X11217D02*Y19927D01*
Y20027D02*X11267Y20077D01*
X11367D01*
X11417Y20027D01*
Y19927D01*
X11367Y19877D02*X11417Y19927D01*
X11267Y19877D02*X11367D01*
X11217Y19927D02*X11267Y19877D01*
X11587Y20027D02*Y19877D01*
Y20027D02*X11637Y20077D01*
X11687D01*
X11737Y20027D01*
Y19877D01*
X11537Y20077D02*X11587Y20027D01*
X11858Y20277D02*X11958D01*
X11908D02*Y19877D01*
X11858D02*X11958D01*
X12078Y20227D02*Y19927D01*
Y20227D02*X12128Y20277D01*
X12228D01*
X12278Y20227D01*
Y19927D01*
X12228Y19877D02*X12278Y19927D01*
X12128Y19877D02*X12228D01*
X12078Y19927D02*X12128Y19877D01*
X12178Y19977D02*X12278Y19877D01*
X12578Y20227D02*X12628Y20277D01*
X12778D01*
X12828Y20227D01*
Y20127D01*
X12578Y19877D02*X12828Y20127D01*
X12578Y19877D02*X12828D01*
X12948Y19927D02*X12998Y19877D01*
X12948Y20227D02*Y19927D01*
Y20227D02*X12998Y20277D01*
X13098D01*
X13148Y20227D01*
Y19927D01*
X13098Y19877D02*X13148Y19927D01*
X12998Y19877D02*X13098D01*
X12948Y19977D02*X13148Y20177D01*
X13268Y19927D02*X13318Y19877D01*
X13268Y20227D02*Y19927D01*
Y20227D02*X13318Y20277D01*
X13418D01*
X13468Y20227D01*
Y19927D01*
X13418Y19877D02*X13468Y19927D01*
X13318Y19877D02*X13418D01*
X13268Y19977D02*X13468Y20177D01*
X13588Y19877D02*X13788Y20077D01*
Y20227D02*Y20077D01*
X13738Y20277D02*X13788Y20227D01*
X13638Y20277D02*X13738D01*
X13588Y20227D02*X13638Y20277D01*
X13588Y20227D02*Y20127D01*
X13638Y20077D01*
X13788D01*
X10129Y19388D02*X10329D01*
X10449D02*X10549Y19488D01*
X10449Y19388D02*X10549Y19288D01*
X10669Y19238D02*X10719Y19188D01*
X10669Y19538D02*X10719Y19588D01*
X10669Y19538D02*Y19238D01*
X10839Y19588D02*Y19188D01*
Y19338D02*X10989Y19188D01*
X10839Y19338D02*X10939Y19438D01*
X11159Y19338D02*Y19188D01*
Y19338D02*X11209Y19388D01*
X11259D01*
X11309Y19338D01*
Y19188D01*
Y19338D02*X11359Y19388D01*
X11409D01*
X11459Y19338D01*
Y19188D01*
X11109Y19388D02*X11159Y19338D01*
X11579Y19588D02*Y19188D01*
Y19338D02*X11729Y19188D01*
X11579Y19338D02*X11679Y19438D01*
X11899Y19338D02*Y19188D01*
Y19338D02*X11949Y19388D01*
X11999D01*
X12049Y19338D01*
Y19188D01*
X11849Y19388D02*X11899Y19338D01*
X12319Y19388D02*X12369Y19338D01*
X12219Y19388D02*X12319D01*
X12169Y19338D02*X12219Y19388D01*
X12169Y19338D02*Y19238D01*
X12219Y19188D01*
X12369Y19388D02*Y19238D01*
X12419Y19188D01*
X12219D02*X12319D01*
X12369Y19238D01*
X12689Y19388D02*X12739Y19338D01*
X12589Y19388D02*X12689D01*
X12539Y19338D02*X12589Y19388D01*
X12539Y19338D02*Y19238D01*
X12589Y19188D01*
X12739Y19388D02*Y19238D01*
X12789Y19188D01*
X12589D02*X12689D01*
X12739Y19238D01*
X12910Y19588D02*Y19188D01*
Y19338D02*X13060Y19188D01*
X12910Y19338D02*X13010Y19438D01*
X13180Y19588D02*X13230Y19538D01*
Y19238D01*
X13180Y19188D02*X13230Y19238D01*
X13350Y19488D02*X13450Y19388D01*
X13350Y19288D02*X13450Y19388D01*
X13570D02*X13770D01*
G54D15*X17126Y18307D03*
X18126D03*
G54D16*X15126Y20307D03*
X19126Y16307D03*
G54D11*G36*
X5282Y12749D02*Y12249D01*
X5782D01*
Y12749D01*
X5282D01*
G37*
G54D17*X7658Y12499D03*
G54D18*X7086Y12499D03*
G54D11*G36*
X5897Y12704D02*Y12294D01*
X6307D01*
Y12704D01*
X5897D01*
G37*
G54D15*X10629Y18307D03*
X11629D03*
G54D16*X8629Y20307D03*
X12629Y16307D03*
G54D18*X6594Y12991D03*
G54D19*X6496Y9496D03*
G54D11*G36*
X6116Y8876D02*Y8116D01*
X6876D01*
Y8876D01*
X6116D01*
G37*
G36*
X8808Y9530D02*Y8643D01*
X9695D01*
Y9530D01*
X8808D01*
G37*
G54D20*X9252Y8086D03*
Y7086D03*
G54D11*G36*
X14070Y5811D02*Y5211D01*
X14670D01*
Y5811D01*
X14070D01*
G37*
G54D17*X16338Y5511D03*
G54D21*X6594Y12007D03*
G54D22*X8366Y6102D03*
X11318Y14763D03*
X11417Y12795D03*
X10925Y10728D03*
X13976D03*
X14566Y7972D03*
X10925Y10039D03*
X11909D03*
X12598Y5118D03*
X11614Y4527D03*
X15059Y13484D03*
X10531Y11811D03*
X9547Y12893D03*
X21358Y14271D03*
X22047Y10334D03*
X21456Y13484D03*
X19389Y18110D03*
X15059Y17519D03*
X16437Y20866D03*
X16338Y6397D03*
X16830Y10728D03*
X16929Y14468D03*
X16830Y12696D03*
X18307Y14271D03*
X16338Y11122D03*
X17322Y12303D03*
Y15944D03*
Y10236D03*
X15682Y9087D03*
X18503Y4527D03*
X18700Y8563D03*
G54D34*X20985Y7533D02*X21615D01*
X20985Y8033D02*X21615D01*
G54D11*G36*
X20483Y9059D02*Y8459D01*
X21083D01*
Y9059D01*
X20483D01*
G37*
G36*
Y10044D02*Y9444D01*
X21083D01*
Y10044D01*
X20483D01*
G37*
G36*
X17727Y9847D02*Y9247D01*
X18327D01*
Y9847D01*
X17727D01*
G37*
G36*
X16727D02*Y9247D01*
X17327D01*
Y9847D01*
X16727D01*
G37*
G36*
X19483Y9059D02*Y8459D01*
X20083D01*
Y9059D01*
X19483D01*
G37*
G36*
Y10044D02*Y9444D01*
X20083D01*
Y10044D01*
X19483D01*
G37*
G36*
X17727Y8863D02*Y8263D01*
X18327D01*
Y8863D01*
X17727D01*
G37*
G36*
X16727D02*Y8263D01*
X17327D01*
Y8863D01*
X16727D01*
G37*
G54D34*X18935Y6533D02*X19565D01*
X20985D02*X21615D01*
X20985Y7033D02*X21615D01*
X18935Y8033D02*X19565D01*
X18935Y7533D02*X19565D01*
X18935Y7033D02*X19565D01*
G54D11*G36*
X17727Y7878D02*Y7278D01*
X18327D01*
Y7878D01*
X17727D01*
G37*
G36*
X16727D02*Y7278D01*
X17327D01*
Y7878D01*
X16727D01*
G37*
G36*
X21467Y15654D02*Y15054D01*
X22067D01*
Y15654D01*
X21467D01*
G37*
G36*
X20467D02*Y15054D01*
X21067D01*
Y15654D01*
X20467D01*
G37*
G54D34*X21773Y13029D02*X22403D01*
X21773Y13529D02*X22403D01*
X21773Y14029D02*X22403D01*
X21773Y14529D02*X22403D01*
G54D11*G36*
X20255Y11520D02*Y10920D01*
X20855D01*
Y11520D01*
X20255D01*
G37*
G36*
X21255D02*Y10920D01*
X21855D01*
Y11520D01*
X21255D01*
G37*
G36*
X21270Y12504D02*Y11904D01*
X21870D01*
Y12504D01*
X21270D01*
G37*
G36*
X20270D02*Y11904D01*
X20870D01*
Y12504D01*
X20270D01*
G37*
G54D34*X19723Y14529D02*X20353D01*
G54D11*G36*
X17499Y15063D02*Y14463D01*
X18099D01*
Y15063D01*
X17499D01*
G37*
G36*
X18499D02*Y14463D01*
X19099D01*
Y15063D01*
X18499D01*
G37*
G54D34*X19723Y14029D02*X20353D01*
X19723Y13529D02*X20353D01*
X19723Y13029D02*X20353D01*
G54D11*G36*
X18515Y14079D02*Y13479D01*
X19115D01*
Y14079D01*
X18515D01*
G37*
G36*
X17515D02*Y13479D01*
X18115D01*
Y14079D01*
X17515D01*
G37*
G36*
X18515Y13095D02*Y12495D01*
X19115D01*
Y13095D01*
X18515D01*
G37*
G36*
X17515D02*Y12495D01*
X18115D01*
Y13095D01*
X17515D01*
G37*
G36*
X15365Y16048D02*Y15448D01*
X15965D01*
Y16048D01*
X15365D01*
G37*
G36*
X14365D02*Y15448D01*
X14965D01*
Y16048D01*
X14365D01*
G37*
G36*
X18518Y12110D02*Y11510D01*
X19118D01*
Y12110D01*
X18518D01*
G37*
G36*
X17518D02*Y11510D01*
X18118D01*
Y12110D01*
X17518D01*
G37*
G36*
X14448Y12012D02*Y11412D01*
X15048D01*
Y12012D01*
X14448D01*
G37*
G36*
X15448D02*Y11412D01*
X16048D01*
Y12012D01*
X15448D01*
G37*
G36*
X14349Y17032D02*Y16432D01*
X14949D01*
Y17032D01*
X14349D01*
G37*
G36*
X15349D02*Y16432D01*
X15949D01*
Y17032D01*
X15349D01*
G37*
G36*
X15463Y12996D02*Y12396D01*
X16063D01*
Y12996D01*
X15463D01*
G37*
G36*
X14463D02*Y12396D01*
X15063D01*
Y12996D01*
X14463D01*
G37*
G36*
X7966Y5534D02*Y4734D01*
X8766D01*
Y5534D01*
X7966D01*
G37*
G36*
X9344D02*Y4734D01*
X10144D01*
Y5534D01*
X9344D01*
G37*
G36*
X5407Y7715D02*Y6915D01*
X6207D01*
Y7715D01*
X5407D01*
G37*
G36*
X6785D02*Y6915D01*
X7585D01*
Y7715D01*
X6785D01*
G37*
G36*
X11625Y5418D02*Y4818D01*
X12225D01*
Y5418D01*
X11625D01*
G37*
G36*
X10625D02*Y4818D01*
X11225D01*
Y5418D01*
X10625D01*
G37*
G36*
X10050Y15260D02*Y14660D01*
X10650D01*
Y15260D01*
X10050D01*
G37*
G36*
X10034Y16244D02*Y15644D01*
X10634D01*
Y16244D01*
X10034D01*
G37*
G54D34*X10371Y12635D02*X11001D01*
X10371Y13135D02*X11001D01*
X10371Y13635D02*X11001D01*
X10371Y14135D02*X11001D01*
G54D11*G36*
X9050Y15260D02*Y14660D01*
X9650D01*
Y15260D01*
X9050D01*
G37*
G36*
X9034Y16244D02*Y15644D01*
X9634D01*
Y16244D01*
X9034D01*
G37*
G54D34*X8321Y14135D02*X8951D01*
X8321Y13635D02*X8951D01*
X8321Y13135D02*X8951D01*
X8321Y12635D02*X8951D01*
G54D11*G36*
X8444Y12111D02*Y11511D01*
X9044D01*
Y12111D01*
X8444D01*
G37*
G36*
Y11142D02*Y10542D01*
X9044D01*
Y11142D01*
X8444D01*
G37*
G36*
X9444Y12111D02*Y11511D01*
X10044D01*
Y12111D01*
X9444D01*
G37*
G36*
Y11142D02*Y10542D01*
X10044D01*
Y11142D01*
X9444D01*
G37*
G36*
X5407Y11061D02*Y10261D01*
X6207D01*
Y11061D01*
X5407D01*
G37*
G36*
X6785D02*Y10261D01*
X7585D01*
Y11061D01*
X6785D01*
G37*
G54D35*X18307Y20630D02*Y20315D01*
G54D36*X18464Y20630D02*Y20315D01*
G54D11*G36*
X18105Y19788D02*Y19188D01*
X18705D01*
Y19788D01*
X18105D01*
G37*
G54D35*X19094Y20630D02*Y20315D01*
G54D36*X18937Y20630D02*Y20315D01*
G54D11*G36*
X19105Y19788D02*Y19188D01*
X19705D01*
Y19788D01*
X19105D01*
G37*
G54D35*X17716Y20630D02*Y20315D01*
G54D36*X17559Y20630D02*Y20315D01*
G54D35*X16929Y20630D02*Y20315D01*
G54D36*X17086Y20630D02*Y20315D01*
G54D11*G36*
X16125Y19787D02*Y19187D01*
X16725D01*
Y19787D01*
X16125D01*
G37*
G36*
X17125D02*Y19187D01*
X17725D01*
Y19787D01*
X17125D01*
G37*
G54D34*X13833Y14923D02*X14463D01*
X15883D02*X16513D01*
G54D11*G36*
X11593Y15063D02*Y14463D01*
X12193D01*
Y15063D01*
X11593D01*
G37*
G36*
X12593D02*Y14463D01*
X13193D01*
Y15063D01*
X12593D01*
G37*
G54D34*X13833Y14423D02*X14463D01*
X15883D02*X16513D01*
X13833Y13923D02*X14463D01*
X13833Y13423D02*X14463D01*
X15883D02*X16513D01*
X15883Y13923D02*X16513D01*
G54D11*G36*
X12609Y12111D02*Y11511D01*
X13209D01*
Y12111D01*
X12609D01*
G37*
G36*
X11609D02*Y11511D01*
X12209D01*
Y12111D01*
X11609D01*
G37*
G36*
X12609Y14079D02*Y13479D01*
X13209D01*
Y14079D01*
X12609D01*
G37*
G36*
X11609D02*Y13479D01*
X12209D01*
Y14079D01*
X11609D01*
G37*
G36*
X11593Y13095D02*Y12495D01*
X12193D01*
Y13095D01*
X11593D01*
G37*
G36*
X12593D02*Y12495D01*
X13193D01*
Y13095D01*
X12593D01*
G37*
G36*
X10609Y8370D02*Y7770D01*
X11209D01*
Y8370D01*
X10609D01*
G37*
G36*
Y7386D02*Y6786D01*
X11209D01*
Y7386D01*
X10609D01*
G37*
G36*
X10626Y9371D02*Y8771D01*
X11226D01*
Y9371D01*
X10626D01*
G37*
G36*
X10609Y6418D02*Y5818D01*
X11209D01*
Y6418D01*
X10609D01*
G37*
G36*
X11609Y8370D02*Y7770D01*
X12209D01*
Y8370D01*
X11609D01*
G37*
G36*
Y7386D02*Y6786D01*
X12209D01*
Y7386D01*
X11609D01*
G37*
G36*
X11626Y9371D02*Y8771D01*
X12226D01*
Y9371D01*
X11626D01*
G37*
G36*
X11609Y6418D02*Y5818D01*
X12209D01*
Y6418D01*
X11609D01*
G37*
G36*
X17727Y6697D02*Y6097D01*
X18327D01*
Y6697D01*
X17727D01*
G37*
G36*
X16727D02*Y6097D01*
X17327D01*
Y6697D01*
X16727D01*
G37*
G54D34*X13030Y8246D02*X13660D01*
X13030Y7746D02*X13660D01*
X13030Y7246D02*X13660D01*
X13030Y6746D02*X13660D01*
G54D11*G36*
X13286Y10372D02*Y9772D01*
X13886D01*
Y10372D01*
X13286D01*
G37*
G36*
Y9387D02*Y8787D01*
X13886D01*
Y9387D01*
X13286D01*
G37*
G54D34*X15080Y6746D02*X15710D01*
X15080Y7246D02*X15710D01*
X15080Y7746D02*X15710D01*
X15080Y8246D02*X15710D01*
G54D11*G36*
X14286Y10372D02*Y9772D01*
X14886D01*
Y10372D01*
X14286D01*
G37*
G36*
Y9387D02*Y8787D01*
X14886D01*
Y9387D01*
X14286D01*
G37*
G54D24*G54D25*G54D26*G54D27*G54D13*G54D26*G54D24*G54D25*G54D13*G54D28*G54D29*G54D24*G54D30*G54D31*M02*
