G04 start of page 9 for group -4062 idx -4062 *
G04 Title: PD-ac, soldermask *
G04 Creator: pcb 1.99x *
G04 CreationDate: Fri 09 Jan 2009 03:59:07 PM GMT UTC *
G04 For: kmk *
G04 Format: Gerber/RS-274X *
G04 PCB-Dimensions: 275591 314961 *
G04 PCB-Coordinate-Origin: lower left *
%MOIN*%
%FSLAX24Y24*%
%LNBACKMASK*%
%ADD11C,0.0200*%
%ADD40C,0.0760*%
%ADD41C,0.1660*%
%ADD42C,0.2420*%
%ADD43C,0.0660*%
%ADD44C,0.0610*%
%ADD45C,0.2260*%
%ADD46C,0.0970*%
%ADD47C,0.1000*%
%ADD54C,0.0298*%
G54D40*X17126Y18307D03*
X18126D03*
G54D41*X15126Y20307D03*
X19126Y16307D03*
G54D42*X21455Y17322D03*
G54D11*G36*
X5252Y12779D02*Y12219D01*
X5812D01*
Y12779D01*
X5252D01*
G37*
G54D43*X7658Y12499D03*
G54D44*X7086Y12499D03*
G54D11*G36*
X5847Y12754D02*Y12244D01*
X6357D01*
Y12754D01*
X5847D01*
G37*
G54D45*X6298Y17322D03*
G54D40*X10629Y18307D03*
X11629D03*
G54D41*X8629Y20307D03*
X12629Y16307D03*
G54D44*X6594Y12991D03*
G54D46*X6496Y9496D03*
G54D11*G36*
X6036Y8956D02*Y8036D01*
X6956D01*
Y8956D01*
X6036D01*
G37*
G36*
X8752Y9586D02*Y8586D01*
X9752D01*
Y9586D01*
X8752D01*
G37*
G54D47*X9252Y8086D03*
Y7086D03*
G54D11*G36*
X14040Y5841D02*Y5181D01*
X14700D01*
Y5841D01*
X14040D01*
G37*
G54D43*X16338Y5511D03*
G54D54*X5118Y18887D02*X7480D01*
M02*
