G04 start of page 4 for group 2 idx 6 *
G04 Title: PD-ac, comment *
G04 Creator: pcb 1.99x *
G04 CreationDate: Fri 09 Jan 2009 03:59:07 PM GMT UTC *
G04 For: kmk *
G04 Format: Gerber/RS-274X *
G04 PCB-Dimensions: 275591 314961 *
G04 PCB-Coordinate-Origin: lower left *
%MOIN*%
%FSLAX24Y24*%
%LNGROUP2*%
%ADD11C,0.0200*%
%ADD13C,0.0250*%
%ADD14C,0.0150*%
%ADD15C,0.0700*%
%ADD16C,0.1600*%
%ADD17C,0.0600*%
%ADD18C,0.0510*%
%ADD19C,0.0810*%
%ADD20C,0.0887*%
%ADD21C,0.0580*%
%ADD22C,0.0280*%
%ADD24C,0.0400*%
%ADD25C,0.0850*%
%ADD26C,0.1200*%
%ADD27C,0.0315*%
%ADD28C,0.0460*%
%ADD29C,0.0450*%
%ADD30C,0.0270*%
%ADD31C,0.0120*%
%ADD37C,0.0066*%
G54D14*X984Y21259D02*X2263D01*
X984Y4133D02*X2263D01*
X1574Y21259D02*Y4133D01*
X5118Y23130D02*Y24015D01*
X22637Y23031D02*Y24015D01*
X5118Y23622D02*X22637D01*
G54D37*X891Y11319D02*X559Y11651D01*
X891Y11734D02*Y11319D01*
X559Y11651D02*X1223D01*
X642Y11933D02*X559Y12016D01*
Y12182D02*Y12016D01*
Y12182D02*X642Y12265D01*
X1140D01*
X1223Y12182D02*X1140Y12265D01*
X1223Y12182D02*Y12016D01*
X1140Y11933D02*X1223Y12016D01*
X891Y12265D02*Y12016D01*
X1223Y12547D02*Y12464D01*
X559Y13079D02*Y12747D01*
X891D01*
X808Y12830D01*
Y12996D02*Y12830D01*
Y12996D02*X891Y13079D01*
X1140D01*
X1223Y12996D02*X1140Y13079D01*
X1223Y12996D02*Y12830D01*
X1140Y12747D02*X1223Y12830D01*
X974Y13660D02*X1223D01*
X974D02*X891Y13743D01*
Y13826D02*Y13743D01*
Y13826D02*X974Y13909D01*
X1223D01*
X974D02*X891Y13992D01*
Y14075D02*Y13992D01*
Y14075D02*X974Y14158D01*
X1223D01*
X891Y13577D02*X974Y13660D01*
Y14440D02*X1223D01*
X974D02*X891Y14523D01*
Y14606D02*Y14523D01*
Y14606D02*X974Y14689D01*
X1223D01*
X974D02*X891Y14772D01*
Y14855D02*Y14772D01*
Y14855D02*X974Y14938D01*
X1223D01*
X891Y14357D02*X974Y14440D01*
X12007Y24206D02*X12339Y24538D01*
X12007Y24206D02*X12422D01*
X12339Y24538D02*Y23874D01*
X12622Y24206D02*X12954Y24538D01*
X12622Y24206D02*X13037D01*
X12954Y24538D02*Y23874D01*
X13236D02*X13319D01*
X13518Y24538D02*X13850D01*
X13518D02*Y24206D01*
X13601Y24289D01*
X13767D01*
X13850Y24206D01*
Y23957D01*
X13767Y23874D02*X13850Y23957D01*
X13601Y23874D02*X13767D01*
X13518Y23957D02*X13601Y23874D01*
X14432Y24123D02*Y23874D01*
Y24123D02*X14515Y24206D01*
X14598D01*
X14681Y24123D01*
Y23874D01*
Y24123D02*X14764Y24206D01*
X14847D01*
X14930Y24123D01*
Y23874D01*
X14349Y24206D02*X14432Y24123D01*
X15212D02*Y23874D01*
Y24123D02*X15295Y24206D01*
X15378D01*
X15461Y24123D01*
Y23874D01*
Y24123D02*X15544Y24206D01*
X15627D01*
X15710Y24123D01*
Y23874D01*
X15129Y24206D02*X15212Y24123D01*
G54D15*X17126Y18307D03*
X18126D03*
G54D16*X15126Y20307D03*
X19126Y16307D03*
G54D11*G36*
X5282Y12749D02*Y12249D01*
X5782D01*
Y12749D01*
X5282D01*
G37*
G54D17*X7658Y12499D03*
G54D18*X7086Y12499D03*
G54D11*G36*
X5897Y12704D02*Y12294D01*
X6307D01*
Y12704D01*
X5897D01*
G37*
G54D15*X10629Y18307D03*
X11629D03*
G54D16*X8629Y20307D03*
X12629Y16307D03*
G54D18*X6594Y12991D03*
G54D19*X6496Y9496D03*
G54D11*G36*
X6116Y8876D02*Y8116D01*
X6876D01*
Y8876D01*
X6116D01*
G37*
G36*
X8808Y9530D02*Y8643D01*
X9695D01*
Y9530D01*
X8808D01*
G37*
G54D20*X9252Y8086D03*
Y7086D03*
G54D11*G36*
X14070Y5811D02*Y5211D01*
X14670D01*
Y5811D01*
X14070D01*
G37*
G54D17*X16338Y5511D03*
G54D21*X6594Y12007D03*
G54D22*X8366Y6102D03*
X11318Y14763D03*
X11417Y12795D03*
X10925Y10728D03*
X13976D03*
X14566Y7972D03*
X10925Y10039D03*
X11909D03*
X12598Y5118D03*
X11614Y4527D03*
X15059Y13484D03*
X10531Y11811D03*
X9547Y12893D03*
X21358Y14271D03*
X22047Y10334D03*
X21456Y13484D03*
X19389Y18110D03*
X15059Y17519D03*
X16437Y20866D03*
X16338Y6397D03*
X16830Y10728D03*
X16929Y14468D03*
X16830Y12696D03*
X18307Y14271D03*
X16338Y11122D03*
X17322Y12303D03*
Y15944D03*
Y10236D03*
X15682Y9087D03*
X18503Y4527D03*
X18700Y8563D03*
G54D24*G54D25*G54D26*G54D27*G54D13*G54D26*G54D24*G54D25*G54D13*G54D28*G54D29*G54D24*G54D30*G54D31*M02*
